<?xml version="1.0" encoding="UTF-8"?>
<svg version="1.1" xmlns="http://www.w3.org/2000/svg" width="600" height="337">
<path d="M0 0 C4.24975556 2.12487778 6.38151895 1.77293184 11 1 C13.45467356 0.9209869 15.91126356 0.8921953 18.3671875 0.90234375 C19.38656906 0.90446617 19.38656906 0.90446617 20.42654419 0.90663147 C22.57607612 0.91218482 24.72550008 0.92472831 26.875 0.9375 C28.34114432 0.94252104 29.80729029 0.94708289 31.2734375 0.95117188 C34.84899283 0.96213889 38.42448586 0.97937081 42 1 C42.234375 6.640625 42.234375 6.640625 40.125 9.875 C39.42375 10.57625 38.7225 11.2775 38 12 C37.34 12 36.68 12 36 12 C36 12.66 36 13.32 36 14 C34.4609375 15.11328125 34.4609375 15.11328125 32.375 16.3125 C29.58803583 17.96988046 27.11348518 19.66150055 24.6875 21.8125 C22 24 22 24 19 24 C18.505 25.485 18.505 25.485 18 27 C13.87847431 30.7713307 9.8398855 32.9200877 4.22265625 33.1640625 C0.78190979 32.90556987 -2.59279415 32.54004704 -6 32 C-6.25910156 32.59554687 -6.51820312 33.19109375 -6.78515625 33.8046875 C-8.08893617 36.16071424 -9.36790604 37.42481743 -11.4375 39.125 C-12.03433594 39.62257812 -12.63117188 40.12015625 -13.24609375 40.6328125 C-17.58326645 44.01368209 -17.58326645 44.01368209 -20.85546875 43.90625 C-24.65075126 42.81245429 -26.47526109 41.22099392 -29.3125 38.5 C-30.17488281 37.6853125 -31.03726563 36.870625 -31.92578125 36.03125 C-34 34 -34 34 -35 33 C-38.3663978 32.76277062 -41.72552761 32.60391333 -45.09765625 32.48242188 C-48.86746432 32.30045482 -50.79364292 32.13757139 -54 30 C-54 29.34 -54 28.68 -54 28 C-55.11375 27.566875 -55.11375 27.566875 -56.25 27.125 C-60.78988593 25.26777394 -63.56263647 23.54824622 -67 20 C-67.99 19.34 -68.98 18.68 -70 18 C-70 17.34 -70 16.68 -70 16 C-70.58652344 15.87882812 -71.17304687 15.75765625 -71.77734375 15.6328125 C-76.02563494 14.42328144 -79.84268197 11.95449164 -82.1171875 8.11328125 C-82.8289811 6.44226104 -83.42563438 4.72309686 -84 3 C-82 1 -82 1 -79.75 0.83984375 C-78.8425 0.87207031 -77.935 0.90429688 -77 0.9375 C-73.31899691 1.01388917 -69.83592618 0.92153664 -66.1875 0.4375 C-58.8233523 -0.38993233 -49.52698434 -0.93869745 -43 3 C-42.16339844 2.2265625 -41.32679687 1.453125 -40.46484375 0.65625 C-37.14094309 -2.09858953 -33.73226001 -3.48041715 -29.5625 -4.5 C-28.52730225 -4.75632202 -28.52730225 -4.75632202 -27.47119141 -5.01782227 C-17.74663353 -7.07796001 -8.68401742 -4.64059957 0 0 Z M-19 2 C-18 5 -18 5 -18 5 Z M-23 9 C-23 9.66 -23 10.32 -23 11 C-21.02 11 -19.04 11 -17 11 C-17 10.34 -17 9.68 -17 9 C-18.98 9 -20.96 9 -23 9 Z M-39 16 C-38 18 -38 18 -38 18 Z M-2 16 C-1 18 -1 18 -1 18 Z M-23 22 C-23.33 22.66 -23.66 23.32 -24 24 C-21.69 24 -19.38 24 -17 24 C-17 23.34 -17 22.68 -17 22 C-18.98 22 -20.96 22 -23 22 Z M-12 27 C-11 29 -11 29 -11 29 Z M-26 29 C-25 31 -25 31 -25 31 Z M-19 29 C-18 32 -18 32 -18 32 Z M-15 29 C-14 31 -14 31 -14 31 Z " fill="#0C2123" transform="translate(84,156)"/>
<path d="M0 0 C3.4488964 2.80526432 5.59893344 6.29011677 8 10 C9.22685089 11.73405768 10.47433789 13.45213526 11.72216797 15.17114258 C12.93203846 16.84355621 14.12463321 18.52675693 15.3125 20.21484375 C18.83304523 25.17328608 22.4232395 30.08195431 26 35 C26.33 23.45 26.66 11.9 27 0 C32.61 0 38.22 0 44 0 C44.81351316 4.06756578 45.09759911 7.0955144 45.02172852 11.16723633 C45.00163223 12.38812454 44.98153595 13.60901276 44.96083069 14.86689758 C44.92027809 16.82963875 44.92027809 16.82963875 44.87890625 18.83203125 C44.85458366 20.19251177 44.83074119 21.55300094 44.80735779 22.91349792 C44.74472953 26.48263465 44.67560355 30.05161673 44.60510254 33.62060547 C44.53422623 37.26718137 44.46952502 40.91386634 44.40429688 44.56054688 C44.27555889 51.70714967 44.13995296 58.85360731 44 66 C34.91146101 68.72331965 34.91146101 68.72331965 30 67 C26.89047105 63.98805042 24.48923291 60.52977711 22 57 C21.18519316 55.88034473 20.36872996 54.76189333 19.55078125 53.64453125 C14.16240981 46.22950099 9.06448496 38.63914093 4 31 C3.97494385 32.05501709 3.9498877 33.11003418 3.92407227 34.19702148 C3.83015891 38.09770628 3.72989966 41.99820625 3.62768555 45.89868164 C3.58427561 47.58939299 3.54260511 49.28014991 3.50268555 50.97094727 C3.44512906 53.39613606 3.38139351 55.82109415 3.31640625 58.24609375 C3.29133751 59.38672523 3.29133751 59.38672523 3.26576233 60.55039978 C3.11387171 65.88612829 3.11387171 65.88612829 2 67 C-3.28 67 -8.56 67 -14 67 C-14 44.89 -14 22.78 -14 0 C-9.64540598 -2.17729701 -4.53807042 -1.27203489 0 0 Z " fill="#FCFEFE" transform="translate(400,135)"/>
<path d="M0 0 C1.07507813 0.57814453 1.07507813 0.57814453 2.171875 1.16796875 C2.80609375 1.46058594 3.4403125 1.75320312 4.09375 2.0546875 C10.53839786 5.66197933 14.09706438 13.31449046 16.171875 20.16796875 C17.2392157 28.11555177 16.79183352 35.92805171 13.171875 43.16796875 C12.511875 43.16796875 11.851875 43.16796875 11.171875 43.16796875 C10.945 43.72484375 10.718125 44.28171875 10.484375 44.85546875 C6.90412214 51.1635333 1.09106174 54.60848189 -5.6640625 56.75 C-14.65014401 58.48557892 -22.63632877 57.90673142 -30.42578125 52.98828125 C-37.90678482 47.31974846 -42.41734997 40.28046767 -44.828125 31.16796875 C-45.53028563 22.02756194 -42.36881398 14.07515407 -36.765625 6.98046875 C-26.76022961 -3.59726917 -13.28189757 -6.35881697 0 0 Z " fill="#F8F8F7" transform="translate(495.828125,147.83203125)"/>
<path d="M0 0 C5.81625 -0.144375 11.6325 -0.28875 17.625 -0.4375 C20.33130615 -0.53309204 20.33130615 -0.53309204 23.09228516 -0.63061523 C34.92720464 -0.87173847 44.00248244 1.10743138 53.31298828 8.94775391 C59.12713536 14.72944691 62.73476907 22.57017808 63.22265625 30.71875 C62.82707342 40.21273785 61.65575498 50.0231987 54.4375 56.8125 C47.70084689 62.02837881 40.62009002 66.44978149 32 67 C31.01 67.495 31.01 67.495 30 68 C26.0885628 68.24334014 22.16815461 68.185206 18.25 68.1875 C17.16460937 68.19974609 16.07921875 68.21199219 14.9609375 68.22460938 C13.90648437 68.22654297 12.85203125 68.22847656 11.765625 68.23046875 C10.32364746 68.23663208 10.32364746 68.23663208 8.85253906 68.24291992 C6 68 6 68 0 66 C0 44.22 0 22.44 0 0 Z M17 15 C17 26.88 17 38.76 17 51 C30.90382256 51.75136297 30.90382256 51.75136297 41 46 C45.44314215 40.27068513 45.87369712 35.12979997 45 28 C43.26675422 22.80026266 40.44573242 20.13816406 36 17 C28.99861207 14.31483984 28.99861207 14.31483984 17 15 Z " fill="#FCFEFE" transform="translate(128,135)"/>
<path d="M0 0 C2.09955193 2.09955193 2.52711773 3.1281513 3.40234375 5.88671875 C3.65306641 6.66080078 3.90378906 7.43488281 4.16210938 8.23242188 C4.41798828 9.04259766 4.67386719 9.85277344 4.9375 10.6875 C6.71411481 16.26270811 8.60429017 21.65792464 11 27 C11.2673999 26.28344238 11.5347998 25.56688477 11.81030273 24.82861328 C13.01822933 21.59364882 14.22784311 18.35931782 15.4375 15.125 C15.85837891 13.99707031 16.27925781 12.86914062 16.71289062 11.70703125 C17.11572266 10.63066406 17.51855469 9.55429688 17.93359375 8.4453125 C18.30540771 7.45031738 18.67722168 6.45532227 19.06030273 5.43017578 C20 3 20 3 21 1 C25.29 1 29.58 1 34 1 C38.15505093 9.31010186 41.15521603 18.16619715 44 27 C44.19335938 26.36191406 44.38671875 25.72382813 44.5859375 25.06640625 C44.97652344 23.82697266 44.97652344 23.82697266 45.375 22.5625 C45.75785156 21.32693359 45.75785156 21.32693359 46.1484375 20.06640625 C47 18 47 18 49 17 C49.37400993 15.3419875 49.69903339 13.67281439 50 12 C51.24417401 8.29745807 52.63299094 4.66005653 54 1 C59.61 1 65.22 1 71 1 C69.50036993 8.49815035 67.4908558 15.18451963 64 22 C64 22.99 64 23.98 64 25 C63.34 25 62.68 25 62 25 C61.7985437 26.09030518 61.7985437 26.09030518 61.59301758 27.20263672 C60.65402052 31.63204317 59.15175677 35.84580934 57.6875 40.125 C57.24374023 41.48431641 57.24374023 41.48431641 56.79101562 42.87109375 C56.34338867 44.17626953 56.34338867 44.17626953 55.88671875 45.5078125 C55.62076904 46.29816895 55.35481934 47.08852539 55.08081055 47.90283203 C53.7663525 50.45336165 52.45769357 51.54729184 50 53 C46.984375 53.07421875 46.984375 53.07421875 43.75 52.6875 C42.67234375 52.56761719 41.5946875 52.44773438 40.484375 52.32421875 C39.66453125 52.21722656 38.8446875 52.11023438 38 52 C36.70543613 48.79282822 35.41487291 45.58406097 34.125 42.375 C33.76019531 41.47136719 33.39539063 40.56773437 33.01953125 39.63671875 C31.20952333 35.12815356 29.46330394 30.636363 28 26 C27.26828608 27.72809031 26.53983485 29.45756202 25.8125 31.1875 C25.35230469 32.27160156 24.89210938 33.35570312 24.41796875 34.47265625 C23.47152317 36.82703741 22.59852808 39.21226211 21.80078125 41.62109375 C18.80681494 50.5433123 18.80681494 50.5433123 14.6875 52.875 C12.8621875 52.936875 12.8621875 52.936875 11 53 C10.31164062 53.05800781 9.62328125 53.11601562 8.9140625 53.17578125 C6.8125 53.1875 6.8125 53.1875 3 52 C1.88452148 50.26245117 1.88452148 50.26245117 0.99609375 48.04296875 C0.49952271 46.82492554 0.49952271 46.82492554 -0.00708008 45.58227539 C-0.49857544 44.30404907 -0.49857544 44.30404907 -1 43 C-1.32057373 42.1845874 -1.64114746 41.3691748 -1.97143555 40.52905273 C-2.92218787 38.06950311 -3.84040394 35.60003821 -4.75 33.125 C-5.06582031 32.28453125 -5.38164063 31.4440625 -5.70703125 30.578125 C-6.00480469 29.77117187 -6.30257812 28.96421875 -6.609375 28.1328125 C-6.87717773 27.40980957 -7.14498047 26.68680664 -7.42089844 25.94189453 C-8 24 -8 24 -8 21 C-8.66 20.67 -9.32 20.34 -10 20 C-12.98300063 13.90970704 -15 7.84573411 -15 1 C-12.54220024 0.77873822 -10.08472352 0.57249605 -7.625 0.375 C-6.57699219 0.27832031 -6.57699219 0.27832031 -5.5078125 0.1796875 C-3.67630889 0.03880261 -1.83687252 0.01238341 0 0 Z " fill="#FAFDFD" transform="translate(526,150)"/>
<path d="M0 0 C5.75149425 7.50889527 6.29368647 13.83045584 6 23 C1.72566956 24.07491629 -2.33858871 24.04858488 -6.70703125 23.87890625 C-7.79512337 23.84348976 -7.79512337 23.84348976 -8.90519714 23.80735779 C-11.20785295 23.7311668 -13.51013389 23.64695297 -15.8125 23.5625 C-17.37953933 23.50923459 -18.94659661 23.45649454 -20.51367188 23.40429688 C-24.34268248 23.27561258 -28.17137741 23.13973538 -32 23 C-30.09548616 27.60059992 -30.09548616 27.60059992 -26.1875 30.375 C-20.66612784 31.45762199 -17.74889287 31.59863065 -13 28.5 C-7.01516721 24.85571932 -0.78282533 25.56582199 6 26 C3.75407634 34.00110305 -0.11522595 38.17416655 -7.2890625 42.32421875 C-14.66151622 45.74628603 -22.66267942 46.38344659 -30.546875 44.33984375 C-36.64851838 41.90970647 -42.79434958 37.66433935 -46.22265625 31.96875 C-47 30 -47 30 -47 27 C-47.66 26.67 -48.32 26.34 -49 26 C-49.58346425 16.71319397 -49.2489068 8.04192477 -43.01171875 0.640625 C-36.11947465 -5.88260431 -29.28050617 -8.4888093 -19.875 -9.12890625 C-12.12789317 -8.78154956 -5.35668432 -5.48733516 0 0 Z M-31 9 C-31.33 10.32 -31.66 11.64 -32 13 C-24.74 13 -17.48 13 -10 13 C-11.49001224 8.15024338 -11.49001224 8.15024338 -14.125 6.1875 C-20.73821536 3.45595452 -25.67126126 4.32110745 -31 9 Z " fill="#FCFEFE" transform="translate(370,158)"/>
<path d="M0 0 C5.61 0 11.22 0 17 0 C17.71027344 1.93746094 18.42054688 3.87492188 19.15234375 5.87109375 C19.84053964 7.74104015 20.52875478 9.61097954 21.2175293 11.48071289 C21.69671624 12.78308093 22.17490993 14.08581485 22.65209961 15.38891602 C23.33708338 17.25892881 24.02590537 19.12753427 24.71484375 20.99609375 C25.12855225 22.12200928 25.54226074 23.2479248 25.96850586 24.40795898 C26.75837567 26.8902246 26.75837567 26.8902246 28 28 C29.50801568 24.06552291 31.00502914 20.12695023 32.5 16.1875 C32.92925781 15.06794922 33.35851562 13.94839844 33.80078125 12.79492188 C34.20683594 11.72177734 34.61289062 10.64863281 35.03125 9.54296875 C35.40830078 8.55321045 35.78535156 7.56345215 36.17382812 6.54370117 C37.15445325 3.97020458 37.15445325 3.97020458 37 1 C40.30994713 -0.65497356 43.99123 -0.10084335 47.625 -0.0625 C48.42679687 -0.05798828 49.22859375 -0.05347656 50.0546875 -0.04882812 C52.03649006 -0.03703168 54.01825433 -0.01909605 56 0 C55.35374587 3.98959728 54.11048483 7.37105881 52.49609375 11.0703125 C51.75649414 12.78541016 51.75649414 12.78541016 51.00195312 14.53515625 C49.95549962 16.93638165 48.90862179 19.33742217 47.86132812 21.73828125 C47.12366211 23.44951172 47.12366211 23.44951172 46.37109375 25.1953125 C45.91661865 26.23703613 45.46214355 27.27875977 44.99389648 28.35205078 C43.82429639 30.99672259 43.82429639 30.99672259 44 34 C43.34 34 42.68 34 42 34 C41.82984375 34.64066406 41.6596875 35.28132813 41.484375 35.94140625 C39.92595112 41.50365317 38.08078528 46.11323714 35 51 C30.05 51 25.1 51 20 51 C15.84798545 42.28076944 11.94115287 33.57732269 8.4140625 24.58984375 C6.69627895 20.22895125 4.89363215 15.90684453 3.078125 11.5859375 C2.72234375 10.73257813 2.3665625 9.87921875 2 9 C1.62359375 8.14664063 1.2471875 7.29328125 0.859375 6.4140625 C0 4 0 4 0 0 Z " fill="#FBFEFE" transform="translate(265,151)"/>
<path d="M0 0 C1.65322266 0.01740234 1.65322266 0.01740234 3.33984375 0.03515625 C4.99693359 0.04869141 4.99693359 0.04869141 6.6875 0.0625 C7.54214844 0.07410156 8.39679688 0.08570313 9.27734375 0.09765625 C9.93734375 1.41765625 10.59734375 2.73765625 11.27734375 4.09765625 C12.16421875 3.43765625 13.05109375 2.77765625 13.96484375 2.09765625 C19.37286278 -1.07564417 25.20223093 -0.15286387 31.27734375 0.09765625 C31.27734375 5.04765625 31.27734375 9.99765625 31.27734375 15.09765625 C29.56546875 15.20078125 27.85359375 15.30390625 26.08984375 15.41015625 C21.79515154 15.80259273 18.6402185 16.1831648 15.27734375 19.09765625 C14.17720411 22.39807517 14.08756316 25.00511777 13.99609375 28.48046875 C13.95871094 29.72957031 13.92132813 30.97867188 13.8828125 32.265625 C13.81229192 34.9114528 13.74198064 37.55728618 13.671875 40.203125 C13.63449219 41.44964844 13.59710938 42.69617188 13.55859375 43.98046875 C13.5131543 45.70354248 13.5131543 45.70354248 13.46679688 47.46142578 C13.27734375 50.09765625 13.27734375 50.09765625 12.27734375 51.09765625 C9.92747113 51.33293398 7.57178336 51.51152042 5.21484375 51.66015625 C3.92449219 51.74394531 2.63414062 51.82773438 1.3046875 51.9140625 C0.30566406 51.97464844 -0.69335938 52.03523438 -1.72265625 52.09765625 C-3.86463765 48.88468415 -3.97181782 48.05923996 -3.96557617 44.36669922 C-3.9686528 43.40915741 -3.97172943 42.4516156 -3.97489929 41.46505737 C-3.96771378 40.43373688 -3.96052826 39.40241638 -3.953125 38.33984375 C-3.95266678 37.28105011 -3.95220856 36.22225647 -3.95173645 35.13137817 C-3.94871502 32.89372639 -3.940832 30.65607669 -3.9284668 28.41845703 C-3.91019218 24.97941708 -3.90795723 21.54064597 -3.90820312 18.1015625 C-3.9032887 15.93098724 -3.89746071 13.76041381 -3.890625 11.58984375 C-3.88951218 10.55447479 -3.88839935 9.51910583 -3.88725281 8.45236206 C-3.88087296 7.50112457 -3.8744931 6.54988708 -3.86791992 5.56982422 C-3.86410812 4.7283786 -3.86029633 3.88693298 -3.85636902 3.01998901 C-3.64221628 -0.05879562 -3.11691707 0.1117976 0 0 Z " fill="#FDFEFE" transform="translate(202.72265625,150.90234375)"/>
<path d="M0 0 C1.07507813 0.57814453 1.07507813 0.57814453 2.171875 1.16796875 C2.80609375 1.46058594 3.4403125 1.75320312 4.09375 2.0546875 C10.53839786 5.66197933 14.09706438 13.31449046 16.171875 20.16796875 C17.2392157 28.11555177 16.79183352 35.92805171 13.171875 43.16796875 C12.511875 43.16796875 11.851875 43.16796875 11.171875 43.16796875 C10.945 43.72484375 10.718125 44.28171875 10.484375 44.85546875 C6.90412214 51.1635333 1.09106174 54.60848189 -5.6640625 56.75 C-14.65014401 58.48557892 -22.63632877 57.90673142 -30.42578125 52.98828125 C-37.90678482 47.31974846 -42.41734997 40.28046767 -44.828125 31.16796875 C-45.53028563 22.02756194 -42.36881398 14.07515407 -36.765625 6.98046875 C-26.76022961 -3.59726917 -13.28189757 -6.35881697 0 0 Z M-27.078125 5.16796875 C-28.41617187 6.00328125 -28.41617187 6.00328125 -29.78125 6.85546875 C-30.45671875 7.28859375 -31.1321875 7.72171875 -31.828125 8.16796875 C-28.77231526 10.75574083 -28.77231526 10.75574083 -24.828125 11.16796875 C-26.35018509 13.79698163 -27.67178464 16.01162839 -29.828125 18.16796875 C-31.808125 16.51796875 -33.788125 14.86796875 -35.828125 13.16796875 C-39.47303115 20.14083269 -41.42256654 26.71042315 -39.14453125 34.5078125 C-35.89131397 42.40462622 -31.48762481 47.89048363 -23.66015625 51.44140625 C-16.93765351 54.10747344 -10.45359307 54.04313622 -3.640625 51.60546875 C3.66595784 48.32496217 8.56095434 43.1456674 11.515625 35.6953125 C13.47958486 28.13172899 12.89771557 20.99867646 9.171875 14.16796875 C8.40875 14.64234375 7.645625 15.11671875 6.859375 15.60546875 C4.171875 17.16796875 4.171875 17.16796875 1.171875 18.16796875 C2.161875 16.51796875 3.151875 14.86796875 4.171875 13.16796875 C2.521875 13.49796875 0.871875 13.82796875 -0.828125 14.16796875 C0.491875 11.85796875 1.811875 9.54796875 3.171875 7.16796875 C-0.84979817 4.19959094 -3.82900576 2.64407534 -8.828125 2.16796875 C-8.828125 4.80796875 -8.828125 7.44796875 -8.828125 10.16796875 C-9.488125 10.16796875 -10.148125 10.16796875 -10.828125 10.16796875 C-10.828125 8.51796875 -10.828125 6.86796875 -10.828125 5.16796875 C-11.818125 6.48796875 -12.808125 7.80796875 -13.828125 9.16796875 C-14.488125 8.50796875 -15.148125 7.84796875 -15.828125 7.16796875 C-15.828125 8.15796875 -15.828125 9.14796875 -15.828125 10.16796875 C-16.488125 10.16796875 -17.148125 10.16796875 -17.828125 10.16796875 C-17.828125 7.52796875 -17.828125 4.88796875 -17.828125 2.16796875 C-22.22407306 2.16796875 -23.46256162 2.88445503 -27.078125 5.16796875 Z " fill="#141617" transform="translate(495.828125,147.83203125)"/>
<path d="M0 0 C0.02526838 6.96003447 0.04283222 13.9200572 0.05493164 20.88012695 C0.05997341 23.24992312 0.06680665 25.61971615 0.07543945 27.98950195 C0.0875119 31.38754039 0.09322971 34.78553785 0.09765625 38.18359375 C0.10281754 39.25024765 0.10797882 40.31690155 0.11329651 41.4158783 C0.11340981 42.88729027 0.11340981 42.88729027 0.11352539 44.38842773 C0.115746 45.25668686 0.11796661 46.12494598 0.12025452 47.01951599 C0 49 0 49 -1 50 C-3.51136104 50.09975032 -5.98903415 50.13882183 -8.5 50.125 C-9.20253906 50.12886719 -9.90507812 50.13273437 -10.62890625 50.13671875 C-15.87338622 50.12661378 -15.87338622 50.12661378 -17 49 C-17.09839214 47.4706537 -17.12798539 45.93680434 -17.12939453 44.40429688 C-17.13254669 43.42658325 -17.13569885 42.44886963 -17.13894653 41.44152832 C-17.1369223 40.37801147 -17.13489807 39.31449463 -17.1328125 38.21875 C-17.13376923 37.13493042 -17.13472595 36.05111084 -17.13571167 34.93444824 C-17.13639365 32.6377761 -17.13453811 30.34110205 -17.13037109 28.04443359 C-17.12502312 24.51525572 -17.1303155 20.98620513 -17.13671875 17.45703125 C-17.13605797 15.23177055 -17.13477682 13.00650993 -17.1328125 10.78125 C-17.13483673 9.71773315 -17.13686096 8.65421631 -17.13894653 7.55847168 C-17.13579437 6.58075806 -17.13264221 5.60304443 -17.12939453 4.59570312 C-17.12859894 3.73046021 -17.12780334 2.86521729 -17.12698364 1.97375488 C-17 0 -17 0 -16 -1 C-14.1796875 -1.38671875 -14.1796875 -1.38671875 -11.875 -1.6875 C-11.12992188 -1.79449219 -10.38484375 -1.90148437 -9.6171875 -2.01171875 C-6.18649716 -1.99635745 -3.27236871 -0.98008233 0 0 Z " fill="#FDFEFE" transform="translate(259,152)"/>
<path d="M0 0 C4.32090372 2.25886724 6.80259821 4.98837928 8.92578125 9.31640625 C10.30593404 14.14694103 10.41244205 18.01930524 8.30078125 22.62890625 C5.98721251 26.66158509 3.0911828 29.23370548 -1.07421875 31.31640625 C-6.67767168 31.91161369 -12.2877173 32.43794799 -17.13671875 29.19140625 C-20.79956188 25.98418507 -22.74637858 22.82848153 -23.38671875 17.921875 C-23.66147296 12.19496702 -22.98459404 8.75521063 -19.07421875 4.31640625 C-13.29663616 -0.77336889 -7.5906975 -2.5016423 0 0 Z " fill="#030303" transform="translate(489.07421875,159.68359375)"/>
<path d="M0 0 C10.23 0 20.46 0 31 0 C31 6 31 6 29.125 8.875 C28.073125 9.926875 28.073125 9.926875 27 11 C26.34 11 25.68 11 25 11 C25 11.66 25 12.32 25 13 C23.4609375 14.11328125 23.4609375 14.11328125 21.375 15.3125 C18.58803583 16.96988046 16.11348518 18.66150055 13.6875 20.8125 C11 23 11 23 8 23 C7.67 23.99 7.34 24.98 7 26 C4.71484375 27.60546875 4.71484375 27.60546875 1.9375 29.1875 C1.01839844 29.71730469 0.09929687 30.24710938 -0.84765625 30.79296875 C-1.55792969 31.19128906 -2.26820312 31.58960938 -3 32 C-3.33 31.34 -3.66 30.68 -4 30 C-7.96 30 -11.92 30 -16 30 C-15.01 28.515 -15.01 28.515 -14 27 C-11.46875 26.7421875 -11.46875 26.7421875 -8.5 26.875 C-4.60043146 27.15562404 -4.60043146 27.15562404 -1 26 C-4.96 25.67 -8.92 25.34 -13 25 C-12.67 24.34 -12.34 23.68 -12 23 C-6.39 23 -0.78 23 5 23 C5 22.34 5 21.68 5 21 C-0.28 21 -5.56 21 -11 21 C-10.67 20.34 -10.34 19.68 -10 19 C-9.42967041 19.00523682 -8.85934082 19.01047363 -8.27172852 19.01586914 C-5.70199677 19.03658221 -3.13228253 19.0496419 -0.5625 19.0625 C0.78424805 19.07506836 0.78424805 19.07506836 2.15820312 19.08789062 C3.43920898 19.09272461 3.43920898 19.09272461 4.74609375 19.09765625 C5.53685303 19.10289307 6.3276123 19.10812988 7.14233398 19.11352539 C9.01592689 19.20495909 9.01592689 19.20495909 10 18 C3.73 17.67 -2.54 17.34 -9 17 C-8.34 15.35 -7.68 13.7 -7 12 C-7 11.01 -7 10.02 -7 9 C-5.39125128 6.67625184 -4.23242069 6.06391569 -1.5 5.3125 C3.33845649 4.88049496 8.14596416 4.92226633 13 5 C13 5.33 13 5.66 13 6 C11.35 6.33 9.7 6.66 8 7 C10.79224073 7.08071788 13.58216566 7.14035408 16.375 7.1875 C17.56609375 7.22520508 17.56609375 7.22520508 18.78125 7.26367188 C20.85586148 7.29004405 22.93100865 7.15486462 25 7 C25.66 6.01 26.32 5.02 27 4 C19.08 4 11.16 4 3 4 C3.33 3.34 3.66 2.68 4 2 C2.68 1.34 1.36 0.68 0 0 Z " fill="#2C4043" transform="translate(95,157)"/>
<path d="M0 0 C5.81625 -0.144375 11.6325 -0.28875 17.625 -0.4375 C20.33130615 -0.53309204 20.33130615 -0.53309204 23.09228516 -0.63061523 C34.92720464 -0.87173847 44.00248244 1.10743138 53.31298828 8.94775391 C59.12713536 14.72944691 62.73476907 22.57017808 63.22265625 30.71875 C62.90604668 38.31737961 61.94946017 46.34233858 58 53 C55.86328125 54.29296875 55.86328125 54.29296875 54 55 C54.66209151 51.93347088 55.74263837 49.33841211 57.0625 46.5 C60.71470851 37.48236518 59.8842666 27.04398779 56.22265625 18.1015625 C52.96312191 11.69440916 48.04427033 7.47435197 41.25 5.1875 C39.83669791 4.7798167 38.42029786 4.38259962 37 4 C36.01 3.67 35.02 3.34 34 3 C23.77 2.67 13.54 2.34 3 2 C3 22.79 3 43.58 3 65 C27.08935464 65.91878527 27.08935464 65.91878527 49 57 C49.99 57.33 50.98 57.66 52 58 C45.89106872 63.34531487 40.09909312 66.19009069 32 67 C31.01 67.495 31.01 67.495 30 68 C26.0885628 68.24334014 22.16815461 68.185206 18.25 68.1875 C17.16460937 68.19974609 16.07921875 68.21199219 14.9609375 68.22460938 C13.90648437 68.22654297 12.85203125 68.22847656 11.765625 68.23046875 C10.32364746 68.23663208 10.32364746 68.23663208 8.85253906 68.24291992 C6 68 6 68 0 66 C0 44.22 0 22.44 0 0 Z " fill="#E5F7F7" transform="translate(128,135)"/>
<path d="M0 0 C-0.33 1.65 -0.66 3.3 -1 5 C-0.01 5 0.98 5 2 5 C2.33 6.65 2.66 8.3 3 10 C2.34 10 1.68 10 1 10 C-0.00217064 13.58327753 -0.00217064 13.58327753 1 17 C1.27843054 21.82612943 0.75645727 25.49907826 -1 30 C-2.98 30.33 -4.96 30.66 -7 31 C-6.34 29.68 -5.68 28.36 -5 27 C-5.474375 26.5875 -5.94875 26.175 -6.4375 25.75 C-8 24 -8 24 -8.5 21.875 C-8.7475 20.946875 -8.7475 20.946875 -9 20 C-9.99 19.67 -10.98 19.34 -12 19 C-12.1546875 20.175625 -12.1546875 20.175625 -12.3125 21.375 C-13 24 -13 24 -16 26 C-17.6415049 22.7169902 -16.51888624 19.57454967 -16 16 C-16.66 16 -17.32 16 -18 16 C-18.33 16.66 -18.66 17.32 -19 18 C-19.33 17.01 -19.66 16.02 -20 15 C-19.195625 14.236875 -18.39125 13.47375 -17.5625 12.6875 C-14.83200976 10.20569102 -14.83200976 10.20569102 -14 7 C-14.66 7 -15.32 7 -16 7 C-16 7.66 -16 8.32 -16 9 C-16.66 9 -17.32 9 -18 9 C-18.33 7.35 -18.66 5.7 -19 4 C-15.32589215 2.82428549 -11.83070817 2.92633254 -8 3 C-8 2.34 -8 1.68 -8 1 C-5.29120665 -0.35439668 -2.99066732 -0.06501451 0 0 Z M-9 6 C-8 9 -8 9 -8 9 Z M-13 13 C-13 13.66 -13 14.32 -13 15 C-11.02 15 -9.04 15 -7 15 C-7 14.34 -7 13.68 -7 13 C-8.98 13 -10.96 13 -13 13 Z " fill="#041719" transform="translate(74,152)"/>
<path d="M0 0 C1.65322266 0.01740234 1.65322266 0.01740234 3.33984375 0.03515625 C4.99693359 0.04869141 4.99693359 0.04869141 6.6875 0.0625 C7.54214844 0.07410156 8.39679688 0.08570313 9.27734375 0.09765625 C9.27734375 1.08765625 9.27734375 2.07765625 9.27734375 3.09765625 C5.97734375 2.76765625 2.67734375 2.43765625 -0.72265625 2.09765625 C-0.72265625 17.27765625 -0.72265625 32.45765625 -0.72265625 48.09765625 C2.90734375 48.09765625 6.53734375 48.09765625 10.27734375 48.09765625 C10.24253906 46.36257812 10.20773438 44.6275 10.171875 42.83984375 C10.14373091 40.55079095 10.11643142 38.26172766 10.08984375 35.97265625 C10.06470703 34.83054688 10.03957031 33.6884375 10.01367188 32.51171875 C9.95349797 25.61177775 10.34632582 21.00568015 14.58984375 15.34765625 C19.09399863 12.01124523 23.85068209 11.88058978 29.27734375 12.09765625 C29.27734375 8.79765625 29.27734375 5.49765625 29.27734375 2.09765625 C26.80234375 1.60265625 26.80234375 1.60265625 24.27734375 1.09765625 C24.27734375 0.76765625 24.27734375 0.43765625 24.27734375 0.09765625 C26.58734375 0.09765625 28.89734375 0.09765625 31.27734375 0.09765625 C31.27734375 5.04765625 31.27734375 9.99765625 31.27734375 15.09765625 C29.56546875 15.20078125 27.85359375 15.30390625 26.08984375 15.41015625 C21.79515154 15.80259273 18.6402185 16.1831648 15.27734375 19.09765625 C14.17720411 22.39807517 14.08756316 25.00511777 13.99609375 28.48046875 C13.95871094 29.72957031 13.92132813 30.97867188 13.8828125 32.265625 C13.81229192 34.9114528 13.74198064 37.55728618 13.671875 40.203125 C13.63449219 41.44964844 13.59710938 42.69617188 13.55859375 43.98046875 C13.5131543 45.70354248 13.5131543 45.70354248 13.46679688 47.46142578 C13.27734375 50.09765625 13.27734375 50.09765625 12.27734375 51.09765625 C9.92747113 51.33293398 7.57178336 51.51152042 5.21484375 51.66015625 C3.92449219 51.74394531 2.63414062 51.82773438 1.3046875 51.9140625 C0.30566406 51.97464844 -0.69335938 52.03523438 -1.72265625 52.09765625 C-3.86463765 48.88468415 -3.97181782 48.05923996 -3.96557617 44.36669922 C-3.9686528 43.40915741 -3.97172943 42.4516156 -3.97489929 41.46505737 C-3.96771378 40.43373688 -3.96052826 39.40241638 -3.953125 38.33984375 C-3.95266678 37.28105011 -3.95220856 36.22225647 -3.95173645 35.13137817 C-3.94871502 32.89372639 -3.940832 30.65607669 -3.9284668 28.41845703 C-3.91019218 24.97941708 -3.90795723 21.54064597 -3.90820312 18.1015625 C-3.9032887 15.93098724 -3.89746071 13.76041381 -3.890625 11.58984375 C-3.88951218 10.55447479 -3.88839935 9.51910583 -3.88725281 8.45236206 C-3.88087296 7.50112457 -3.8744931 6.54988708 -3.86791992 5.56982422 C-3.86410812 4.7283786 -3.86029633 3.88693298 -3.85636902 3.01998901 C-3.64221628 -0.05879562 -3.11691707 0.1117976 0 0 Z " fill="#EDFCFC" transform="translate(202.72265625,150.90234375)"/>
<path d="M0 0 C0.71929687 0.391875 1.43859375 0.78375 2.1796875 1.1875 C2.83710938 1.538125 3.49453125 1.88875 4.171875 2.25 C9.09246508 5.29105138 12.2997824 9.71423463 14.1796875 15.1875 C13.8046875 17.46484375 13.8046875 17.46484375 13.1796875 19.1875 C12.9115625 18.61902344 12.6434375 18.05054688 12.3671875 17.46484375 C8.69185275 10.2229835 3.97611082 4.6231414 -3.5703125 1.25 C-11.33333135 -1.19024168 -19.5614706 -0.81504309 -26.7890625 2.9296875 C-33.81741567 7.28186004 -38.00388947 12.14486604 -40.40625 20.13671875 C-41.85758682 27.32494356 -41.15783898 34.64217423 -37.8203125 41.1875 C-33.32564425 47.7262551 -27.77707724 52.61048356 -19.8203125 54.1875 C-10.20037514 55.24302091 -2.78998113 53.82720554 5.1796875 48.1875 C11.24971526 42.24712332 13.29113186 35.70057548 13.8046875 27.3125 C13.87945312 26.16007812 13.95421875 25.00765625 14.03125 23.8203125 C14.08023438 22.95148438 14.12921875 22.08265625 14.1796875 21.1875 C14.5096875 21.1875 14.8396875 21.1875 15.1796875 21.1875 C15.23402866 23.7294589 15.2735214 26.27023682 15.3046875 28.8125 C15.32144531 29.52535156 15.33820313 30.23820312 15.35546875 30.97265625 C15.39653352 35.4487164 14.87055317 38.96699278 13.1796875 43.1875 C12.5196875 43.1875 11.8596875 43.1875 11.1796875 43.1875 C10.9528125 43.744375 10.7259375 44.30125 10.4921875 44.875 C6.91193464 51.18306455 1.09887424 54.62801314 -5.65625 56.76953125 C-14.64233151 58.50511017 -22.62851627 57.92626267 -30.41796875 53.0078125 C-37.89897232 47.33927971 -42.40953747 40.29999892 -44.8203125 31.1875 C-45.52247313 22.04709319 -42.36100148 14.09468532 -36.7578125 7 C-26.73046894 -3.6009416 -13.31676333 -6.28725875 0 0 Z " fill="#B7C6C7" transform="translate(495.8203125,147.8125)"/>
<path d="M0 0 C10.23 0 20.46 0 31 0 C30.34 1.98 29.68 3.96 29 6 C29.763125 6.350625 30.52625 6.70125 31.3125 7.0625 C34 9 34 9 37 16 C31.72 16 26.44 16 21 16 C22.64856825 20.12403473 22.64856825 20.12403473 26 22 C21.69722076 22.36880965 19.49101784 21.50637178 16 19 C14.64691687 17.68671343 13.31129922 16.35500919 12 15 C11.01 14.34 10.02 13.68 9 13 C9 12.34 9 11.68 9 11 C8.01 11 7.02 11 6 11 C6 9.02 6 7.04 6 5 C5.195625 4.731875 4.39125 4.46375 3.5625 4.1875 C2.716875 3.795625 1.87125 3.40375 1 3 C0.67 2.01 0.34 1.02 0 0 Z " fill="#081E1E" transform="translate(5,161)"/>
<path d="M0 0 C0 16.17 0 32.34 0 49 C-1.98 49.495 -1.98 49.495 -4 50 C-3.67 33.83 -3.34 17.66 -3 1 C-6.63 1 -10.26 1 -14 1 C-14 16.84 -14 32.68 -14 49 C-14.99 49 -15.98 49 -17 49 C-17.02526838 42.03996553 -17.04283222 35.0799428 -17.05493164 28.11987305 C-17.05997341 25.75007688 -17.06680665 23.38028385 -17.07543945 21.01049805 C-17.0875119 17.61245961 -17.09322971 14.21446215 -17.09765625 10.81640625 C-17.10281754 9.74975235 -17.10797882 8.68309845 -17.11329651 7.5841217 C-17.11337204 6.60318039 -17.11344757 5.62223907 -17.11352539 4.61157227 C-17.115746 3.74331314 -17.11796661 2.87505402 -17.12025452 1.98048401 C-17 0 -17 0 -16 -1 C-14.1796875 -1.38671875 -14.1796875 -1.38671875 -11.875 -1.6875 C-11.12992188 -1.79449219 -10.38484375 -1.90148437 -9.6171875 -2.01171875 C-7 -2 -7 -2 0 0 Z " fill="#EAFAFA" transform="translate(259,152)"/>
<path d="M0 0 C5.61 0 11.22 0 17 0 C17.81351316 4.06756578 18.09759911 7.0955144 18.02172852 11.16723633 C17.99158409 12.99856865 17.99158409 12.99856865 17.96083069 14.86689758 C17.92027809 16.82963875 17.92027809 16.82963875 17.87890625 18.83203125 C17.85458366 20.19251177 17.83074119 21.55300094 17.80735779 22.91349792 C17.74472953 26.48263465 17.67560355 30.05161673 17.60510254 33.62060547 C17.53422623 37.26718137 17.46952502 40.91386634 17.40429688 44.56054688 C17.27555889 51.70714967 17.13995296 58.85360731 17 66 C11.82667784 67.60273976 8.33295666 68.33323916 3 67 C1.0625 65.4375 1.0625 65.4375 0 64 C0.33 63.34 0.66 62.68 1 62 C1.66 62.33 2.32 62.66 3 63 C6.63 63.33 10.26 63.66 14 64 C14 43.54 14 23.08 14 2 C10.04 2 6.08 2 2 2 C1.67 14.54 1.34 27.08 1 40 C-1.57867841 36.13198238 -1.15753069 33.07530474 -0.9765625 28.61328125 C-0.95153656 27.79627243 -0.92651062 26.97926361 -0.90072632 26.13749695 C-0.81857276 23.52873963 -0.72196612 20.92074468 -0.625 18.3125 C-0.56675563 16.54365091 -0.50945245 14.77477055 -0.453125 13.00585938 C-0.31476725 8.66997175 -0.15688056 4.33541547 0 0 Z " fill="#EDFAF9" transform="translate(427,135)"/>
<path d="M0 0 C3.08958057 2.88360853 3.82953203 5.82353486 4 10 C2.39590722 13.63031524 0.52890641 16.13752162 -3 18 C-7.51374541 18.66870302 -9.4542721 18.33350038 -13.375 15.9375 C-16.50242834 12.43775876 -17.08326185 10.66266365 -17 6 C-15.61153 2.18170749 -14.25775371 1.15366086 -10.75 -0.9375 C-6.27352697 -2.20583402 -4.22446407 -1.86851295 0 0 Z " fill="#FEFEFE" transform="translate(257,128)"/>
<path d="M0 0 C0.66 0 1.32 0 2 0 C2 21.12 2 42.24 2 64 C26.08935464 64.91878527 26.08935464 64.91878527 48 56 C48.99 56.33 49.98 56.66 51 57 C44.89106872 62.34531487 39.09909312 65.19009069 31 66 C30.01 66.495 30.01 66.495 29 67 C27.24558737 67.09656649 25.48753577 67.13075487 23.73046875 67.1328125 C22.14975586 67.13474609 22.14975586 67.13474609 20.53710938 67.13671875 C18.87905273 67.13091797 18.87905273 67.13091797 17.1875 67.125 C15.5468457 67.13080078 15.5468457 67.13080078 13.87304688 67.13671875 C12.2865332 67.13478516 12.2865332 67.13478516 10.66796875 67.1328125 C9.70141357 67.13168457 8.7348584 67.13055664 7.73901367 67.12939453 C5 67 5 67 0 66 C0 44.22 0 22.44 0 0 Z " fill="#EAFDFD" transform="translate(129,136)"/>
<path d="M0 0 C0.66 0 1.32 0 2 0 C2 0.66 2 1.32 2 2 C6.29 2 10.58 2 15 2 C12 5 12 5 9.3359375 5.2578125 C8.35882813 5.21398437 7.38171875 5.17015625 6.375 5.125 C4.58423621 5.05449749 2.79214159 5.00583759 1 5 C0.67 5.33 0.34 5.66 0 6 C5.445 6.495 5.445 6.495 11 7 C11 7.33 11 7.66 11 8 C6.71 8 2.42 8 -2 8 C-2.66 9.32 -3.32 10.64 -4 12 C-5.62109375 13.6328125 -5.62109375 13.6328125 -7.4375 15.125 C-8.03433594 15.62257812 -8.63117188 16.12015625 -9.24609375 16.6328125 C-13.59795007 20.02512812 -13.59795007 20.02512812 -17 19.8125 C-20.02363717 18.99359827 -21.23858434 18.54426706 -23 16 C-23 13 -23 13 -22 11 C-21.01 10.34 -20.02 9.68 -19 9 C-18.34 9.33 -17.68 9.66 -17 10 C-17.33 11.32 -17.66 12.64 -18 14 C-17.34 12.68 -16.68 11.36 -16 10 C-14.68 10.33 -13.36 10.66 -12 11 C-10.8509288 9.0745356 -10.8509288 9.0745356 -11 7 C-10.34 7 -9.68 7 -9 7 C-9 6.34 -9 5.68 -9 5 C-8.01 5 -7.02 5 -6 5 C-5.67 4.01 -5.34 3.02 -5 2 C-4.34 2.66 -3.68 3.32 -3 4 C-2.54625 3.34 -2.0925 2.68 -1.625 2 C-1.08875 1.34 -0.5525 0.68 0 0 Z " fill="#071E21" transform="translate(80,180)"/>
<path d="M0 0 C1.22589844 0.01353516 1.22589844 0.01353516 2.4765625 0.02734375 C3.41628906 0.04474609 3.41628906 0.04474609 4.375 0.0625 C4.045 0.7225 3.715 1.3825 3.375 2.0625 C2.385 2.0625 1.395 2.0625 0.375 2.0625 C0.375 6.6825 0.375 11.3025 0.375 16.0625 C-4.245 16.0625 -8.865 16.0625 -13.625 16.0625 C-13.955 17.0525 -14.285 18.0425 -14.625 19.0625 C-14.955 19.0625 -15.285 19.0625 -15.625 19.0625 C-16.04564893 12.96309045 -15.71464656 9.92586347 -11.625 5.0625 C-7.6022229 1.51862493 -5.33529635 -0.07621852 0 0 Z " fill="#020201" transform="translate(481.625,158.9375)"/>
<path d="M0 0 C1.37426758 1.80786133 1.37426758 1.80786133 3.37426758 6.80786133 C-4.54573242 7.30286133 -4.54573242 7.30286133 -12.62573242 7.80786133 C-11.96573242 7.80786133 -11.30573242 7.80786133 -10.62573242 7.80786133 C-5.62573242 7.80786133 -0.62573242 7.80786133 4.37426758 7.80786133 C6.37426758 11.80786133 6.37426758 11.80786133 8.37426758 15.80786133 C5.77060829 16.02957685 3.16730265 16.23570992 0.56176758 16.43286133 C-0.1762207 16.49731445 -0.91420898 16.56176758 -1.67456055 16.62817383 C-7.28588867 17.03442383 -7.28588867 17.03442383 -10.62573242 14.80786133 C-10.62573242 14.14786133 -10.62573242 13.48786133 -10.62573242 12.80786133 C-11.28573242 12.47786133 -11.94573242 12.14786133 -12.62573242 11.80786133 C-14.62573242 8.80786133 -14.62573242 8.80786133 -14.25073242 6.12036133 C-14.04448242 5.35723633 -13.83823242 4.59411133 -13.62573242 3.80786133 C-15.27573242 3.47786133 -16.92573242 3.14786133 -18.62573242 2.80786133 C-18.62573242 1.81786133 -18.62573242 0.82786133 -18.62573242 -0.19213867 C-15.85539105 -0.44072065 -13.08634173 -0.66666746 -10.31323242 -0.87963867 C-9.13470703 -0.98888672 -9.13470703 -0.98888672 -7.93237305 -1.1003418 C-7.17504883 -1.15512695 -6.41772461 -1.20991211 -5.63745117 -1.26635742 C-4.94095459 -1.3239624 -4.24445801 -1.38156738 -3.52685547 -1.44091797 C-1.62573242 -1.19213867 -1.62573242 -1.19213867 0 0 Z " fill="#213233" transform="translate(40.625732421875,171.192138671875)"/>
<path d="M0 0 C0.66 0 1.32 0 2 0 C1.7834375 0.81791016 1.7834375 0.81791016 1.5625 1.65234375 C-0.78004709 11.16894129 -0.9918573 18.32562502 4 27 C7.85030167 33.16596353 13.31792074 35.77264025 20 38 C27.38114639 38.82614666 33.47188998 37.52613242 40 34 C42.55062666 31.96169749 42.55062666 31.96169749 44 30 C44.99 30.33 45.98 30.66 47 31 C42.13108032 36.68040629 36.2648781 40.45282739 28.7421875 41.41796875 C18.08943971 41.67749045 11.75464251 39.46598428 3.984375 32.19140625 C-1.72035007 25.89150317 -3.28359798 18.91126013 -3.234375 10.6171875 C-2.88199541 6.68228202 -1.59905761 3.59787962 0 0 Z " fill="#07090B" transform="translate(457,162)"/>
<path d="M0 0 C5.01243959 3.84380901 8.1686587 7.3373174 11 13 C11.66 13 12.32 13 13 13 C14.18681726 16.56045177 14.09689832 19.43808337 14.0625 23.1875 C14.05347656 24.45980469 14.04445313 25.73210937 14.03515625 27.04296875 C14.02355469 28.01878906 14.01195312 28.99460938 14 30 C13.34 30 12.68 30 12 30 C11.74605469 30.62648437 11.49210937 31.25296875 11.23046875 31.8984375 C10.88628906 32.71570313 10.54210937 33.53296875 10.1875 34.375 C9.68283203 35.59316406 9.68283203 35.59316406 9.16796875 36.8359375 C8 39 8 39 5 41 C5 37.78301922 5.52266557 36.81711315 7 34.0625 C9.89712449 27.78539694 10.3172763 20.68032922 7.9765625 14.140625 C7.65429688 13.43421875 7.33203125 12.7278125 7 12 C6.236875 12.33 5.47375 12.66 4.6875 13 C2 14 2 14 -1 14 C-0.67 12.68 -0.34 11.36 0 10 C-0.99 10.33 -1.98 10.66 -3 11 C-3 7.39702611 -1.8214829 6.03580484 0 3 C0 2.01 0 1.02 0 0 Z " fill="#1F2429" transform="translate(498,152)"/>
<path d="M0 0 C1.59134766 0.10054687 1.59134766 0.10054687 3.21484375 0.203125 C6.2418363 0.78444044 7.21381598 1.35379632 9.0625 3.75 C8.7325 4.41 8.4025 5.07 8.0625 5.75 C7.0725 5.09 6.0825 4.43 5.0625 3.75 C1.4325 3.42 -2.1975 3.09 -5.9375 2.75 C-5.9375 23.54 -5.9375 44.33 -5.9375 65.75 C-6.9275 66.245 -6.9275 66.245 -7.9375 66.75 C-7.9375 44.97 -7.9375 23.19 -7.9375 0.75 C-5.15903923 -0.63923038 -3.08433299 -0.22431513 0 0 Z " fill="#DBEDED" transform="translate(393.9375,134.25)"/>
<path d="M0 0 C4.29574113 0.25269065 6.47518229 0.5568206 9.8125 3.375 C13.22674206 7.47209047 14 8.4249799 14 14 C9.38 14 4.76 14 0 14 C0 9.38 0 4.76 0 0 Z " fill="#F9F9F9" transform="translate(482,161)"/>
<path d="M0 0 C4.62 0 9.24 0 14 0 C14 4.62 14 9.24 14 14 C10.58956214 13.93179124 7.96276373 13.77106299 5.234375 11.5859375 C1.51795771 7.49066213 0.98211027 5.89266162 0 0 Z " fill="#FCFCFC" transform="translate(468,175)"/>
<path d="M0 0 C10.23 0 20.46 0 31 0 C31 1.98 31 3.96 31 6 C29.906875 6.598125 28.81375 7.19625 27.6875 7.8125 C25.05561958 9.3058406 23.09126896 10.80416759 21 13 C20.01 13.33 19.02 13.66 18 14 C17.67 14.66 17.34 15.32 17 16 C16.34 15.67 15.68 15.34 15 15 C15.33 14.34 15.66 13.68 16 13 C11.05 13 6.1 13 1 13 C1 12.67 1 12.34 1 12 C1.57032959 11.97494385 2.14065918 11.9498877 2.72827148 11.92407227 C5.29826157 11.80843451 7.86785527 11.68556376 10.4375 11.5625 C11.33533203 11.52318359 12.23316406 11.48386719 13.15820312 11.44335938 C14.43920898 11.38051758 14.43920898 11.38051758 15.74609375 11.31640625 C16.53685303 11.27974854 17.3276123 11.24309082 18.14233398 11.20532227 C20.01401441 11.19436743 20.01401441 11.19436743 21 10 C16.71 9.67 12.42 9.34 8 9 C8 8.67 8 8.34 8 8 C9.20398438 7.96261719 10.40796875 7.92523438 11.6484375 7.88671875 C13.22399011 7.82107072 14.79950954 7.75462299 16.375 7.6875 C17.1690625 7.66494141 17.963125 7.64238281 18.78125 7.61914062 C20.86215581 7.52214925 22.93441332 7.27005175 25 7 C25.66 6.01 26.32 5.02 27 4 C19.08 4 11.16 4 3 4 C3.33 3.34 3.66 2.68 4 2 C2.68 1.34 1.36 0.68 0 0 Z " fill="#3E5357" transform="translate(95,157)"/>
<path d="M0 0 C4.79029404 0.422673 7.73222106 2.65120175 11 6 C16.75149425 13.50889527 17.29368647 19.83045584 17 29 C12.59231424 30.12367611 8.36228135 30.04360745 3.85546875 29.87890625 C2.7007885 29.84348976 2.7007885 29.84348976 1.52278137 29.80735779 C-0.92251905 29.73112309 -3.36747011 29.6469275 -5.8125 29.5625 C-7.47589468 29.50923899 -9.13930613 29.4564989 -10.80273438 29.40429688 C-14.86870849 29.2755628 -18.93438818 29.13969106 -23 29 C-23 28.34 -23 27.68 -23 27 C-10.46 27 2.08 27 15 27 C14.01 21.72 13.02 16.44 12 11 C11.01 10.34 10.02 9.68 9 9 C8.67 8.01 8.34 7.02 8 6 C4.99992729 4.29144978 4.99992729 4.29144978 2 3 C2 2.34 2 1.68 2 1 C1.34 0.67 0.68 0.34 0 0 Z " fill="#E7F7FA" transform="translate(359,152)"/>
<path d="M0 0 C1.03253906 0.02707031 1.03253906 0.02707031 2.0859375 0.0546875 C3.7662381 0.10136252 5.44581163 0.17309061 7.125 0.25 C5.14258462 7.31235478 2.23193338 11.15451836 -3.875 15.25 C-10.49369618 18.91025776 -16.38201745 19.82393058 -23.875 19.25 C-23.875 18.59 -23.875 17.93 -23.875 17.25 C-22.781875 17.353125 -21.68875 17.45625 -20.5625 17.5625 C-13.62323835 17.57484744 -7.51847832 14.01231888 -1.875 10.25 C0.56964865 7.96704177 0.56964865 7.96704177 3.125 3.25 C-0.835 3.25 -4.795 3.25 -8.875 3.25 C-8.875 3.91 -8.875 4.57 -8.875 5.25 C-13.88432754 8.25559652 -17.20223489 8.54341888 -22.875 8.25 C-22.875 7.59 -22.875 6.93 -22.875 6.25 C-22.00488281 6.10304687 -22.00488281 6.10304687 -21.1171875 5.953125 C-20.33601563 5.80359375 -19.55484375 5.6540625 -18.75 5.5 C-17.98429687 5.36078125 -17.21859375 5.2215625 -16.4296875 5.078125 C-13.68298412 4.33544418 -13.68298412 4.33544418 -11.0625 2.1875 C-7.2487186 -0.13068085 -4.31185848 -0.21726419 0 0 Z " fill="#E8F7F8" transform="translate(368.875,183.75)"/>
<path d="M0 0 C3.08958057 2.88360853 3.82953203 5.82353486 4 10 C2.39590722 13.63031524 0.52890641 16.13752162 -3 18 C-7.51374541 18.66870302 -9.4542721 18.33350038 -13.375 15.9375 C-16.50242834 12.43775876 -17.08326185 10.66266365 -17 6 C-15.61153 2.18170749 -14.25775371 1.15366086 -10.75 -0.9375 C-6.27352697 -2.20583402 -4.22446407 -1.86851295 0 0 Z M-14 4 C-14.49726061 6.74350681 -14.61019255 9.27337383 -14 12 C-12.41188298 14.19548466 -11.5140347 14.89663433 -8.84375 15.43359375 C-4.03781674 15.55184187 -4.03781674 15.55184187 0.0625 13.375 C1.60215595 9.47453827 1.63041537 6.4972365 0 2.625 C-2.60376149 0.50944379 -4.76831978 0.49144485 -8.05859375 0.69140625 C-10.95219734 1.15135531 -12.21908768 1.62545024 -14 4 Z " fill="#E8FAFA" transform="translate(257,128)"/>
<path d="M0 0 C0.33 0 0.66 0 1 0 C1.05434116 2.5419589 1.0938339 5.08273682 1.125 7.625 C1.14175781 8.33785156 1.15851563 9.05070313 1.17578125 9.78515625 C1.21684602 14.2612164 0.69086567 17.77949278 -1 22 C-1.66 22 -2.32 22 -3 22 C-3.226875 22.556875 -3.45375 23.11375 -3.6875 23.6875 C-7.26775286 29.99556455 -13.08081326 33.44051314 -19.8359375 35.58203125 C-29.3355665 37.41679714 -36.89165559 36.41326338 -45.0859375 31.3125 C-45.71757812 30.879375 -46.34921875 30.44625 -47 30 C-45.15625 29.4140625 -45.15625 29.4140625 -43 29 C-40.5 30.375 -40.5 30.375 -38 32 C-30.21843606 34.50853048 -21.91458909 33.88691745 -14.5625 30.5 C-8.27007773 26.97557854 -4.52247138 22.87050823 -1.890625 16.1796875 C-0.93668391 12.77395044 -0.59092098 9.65170929 -0.375 6.125 C-0.30023438 4.97257813 -0.22546875 3.82015625 -0.1484375 2.6328125 C-0.09945312 1.76398438 -0.05046875 0.89515625 0 0 Z " fill="#8C9AA0" transform="translate(510,169)"/>
<path d="M0 0 C0.99 0.33 1.98 0.66 3 1 C3 13.87 3 26.74 3 40 C1.02 40.495 1.02 40.495 -1 41 C-0.67 27.47 -0.34 13.94 0 0 Z " fill="#EBF8FA" transform="translate(400,161)"/>
<path d="M0 0 C0.66 0 1.32 0 2 0 C2.33 1.32 2.66 2.64 3 4 C6.63 4.66 10.26 5.32 14 6 C14 7.32 14 8.64 14 10 C14.66 10 15.32 10 16 10 C15 13 15 13 13 15 C12.01 15 11.02 15 10 15 C9.5978125 13.5459375 9.5978125 13.5459375 9.1875 12.0625 C8.795625 11.051875 8.40375 10.04125 8 9 C7.01 8.67 6.02 8.34 5 8 C4.896875 8.78375 4.79375 9.5675 4.6875 10.375 C4 13 4 13 1 15 C-0.6415049 11.7169902 0.48111376 8.57454967 1 5 C0.34 5 -0.32 5 -1 5 C-1.33 5.66 -1.66 6.32 -2 7 C-2.33 6.01 -2.66 5.02 -3 4 C-1.6875 1.8125 -1.6875 1.8125 0 0 Z " fill="#070F0C" transform="translate(57,163)"/>
<path d="M0 0 C4.38296556 0.48699617 6.03183648 1.83395891 9 5 C9.99 5.33 10.98 5.66 12 6 C14.89342806 10.52055585 15.43210007 14.18647342 15.4375 19.5 C15.46650391 21.40265625 15.46650391 21.40265625 15.49609375 23.34375 C14.78651627 28.5733919 12.36840089 31.55340477 8.8125 35.3125 C4.97368574 37.61578856 1.41030263 37.80782995 -3 38 C-2.34 37.01 -1.68 36.02 -1 35 C-0.071875 34.87625 0.85625 34.7525 1.8125 34.625 C5.94049213 33.81558978 7.33474169 32.18350298 10 29 C12.88816948 24.28030841 12.49829907 19.36450094 12 14 C10.05855537 8.38002871 6.8487449 5.53986211 1.6875 2.75 C1.130625 2.5025 0.57375 2.255 0 2 C0 1.34 0 0.68 0 0 Z " fill="#E8F9F9" transform="translate(160,149)"/>
<path d="M0 0 C0.33 0 0.66 0 1 0 C0.96519531 1.41152344 0.96519531 1.41152344 0.9296875 2.8515625 C0.91164063 4.09679687 0.89359375 5.34203125 0.875 6.625 C0.85179687 7.85476562 0.82859375 9.08453125 0.8046875 10.3515625 C0.99784928 13.95982451 1.76107303 16.6316673 3 20 C3.125 22.875 3.125 22.875 3 25 C3.515625 25.226875 4.03125 25.45375 4.5625 25.6875 C6.69290173 26.83463939 8.44920967 28.05245472 10.375 29.5 C13.43480232 31.74033042 16.30992509 33.0099799 20 34 C20 34.66 20 35.32 20 36 C12.28131575 35.67838816 7.77175131 31.9138924 2.5625 26.4375 C0.92433404 23.88196111 0.49308684 21.95852106 0 19 C-0.66 18.67 -1.32 18.34 -2 18 C-2.3690205 5.33029613 -2.3690205 5.33029613 0 0 Z " fill="#E9F8F9" transform="translate(323,166)"/>
<path d="M0 0 C0.99 0.33 1.98 0.66 3 1 C2.67 1.99 2.34 2.98 2 4 C2.99 4.33 3.98 4.66 5 5 C4.34 6.32 3.68 7.64 3 9 C3.33 9.33 3.66 9.66 4 10 C3.01 10.99 2.02 11.98 1 13 C0.62875 12.505 0.2575 12.01 -0.125 11.5 C-2.74694393 9.40244486 -4.73842472 9.78256165 -8 10 C-8.33 10.66 -8.66 11.32 -9 12 C-9.66 10.68 -10.32 9.36 -11 8 C-11.99 8 -12.98 8 -14 8 C-13.67 7.01 -13.34 6.02 -13 5 C-8.70700357 3.73735399 -6.12168689 4.37049588 -2 6 C-2 5.34 -2 4.68 -2 4 C-3.65 3.67 -5.3 3.34 -7 3 C-7 2.67 -7 2.34 -7 2 C-4.69 2 -2.38 2 0 2 C0 1.34 0 0.68 0 0 Z M-9 7 C-8 9 -8 9 -8 9 Z " fill="#0E2629" transform="translate(67,178)"/>
<path d="M0 0 C0.80179687 0.00451172 1.60359375 0.00902344 2.4296875 0.01367188 C4.41149006 0.02546832 6.39325433 0.04340395 8.375 0.0625 C7.6534563 4.9377953 5.8500323 9.27915639 4 13.8125 C3.54367187 14.98232422 3.54367187 14.98232422 3.078125 16.17578125 C2.77648437 16.91699219 2.47484375 17.65820312 2.1640625 18.421875 C1.89287598 19.09702148 1.62168945 19.77216797 1.34228516 20.46777344 C0.375 22.0625 0.375 22.0625 -2.625 23.0625 C-1.04814893 17.40372949 0.74352455 12.3254509 3.375 7.0625 C4.08258326 3.8258037 4.08258326 3.8258037 4.375 1.0625 C0.415 1.0625 -3.545 1.0625 -7.625 1.0625 C-7.625 2.7125 -7.625 4.3625 -7.625 6.0625 C-8.615 6.3925 -9.605 6.7225 -10.625 7.0625 C-10.625 5.0825 -10.625 3.1025 -10.625 1.0625 C-7.31505287 -0.59247356 -3.63377 -0.03834335 0 0 Z " fill="#ECF8F9" transform="translate(312.625,150.9375)"/>
<path d="M0 0 C0.33 0.66 0.66 1.32 1 2 C2.32 1.34 3.64 0.68 5 0 C4.45388137 3.82283043 2.76181385 5.41079952 0 8 C-1.59220976 11.18441952 -1.3976617 14.5337155 -1 18 C0.3509288 20.9254644 0.3509288 20.9254644 2 23 C1.34 23.33 0.68 23.66 0 24 C-2 22 -2 22 -3 20 C-3.66 20.33 -4.32 20.66 -5 21 C-7.125 13.375 -7.125 13.375 -6 10 C-6 9.01 -6 8.02 -6 7 C-5.34 7 -4.68 7 -4 7 C-3.896875 6.401875 -3.79375 5.80375 -3.6875 5.1875 C-2.91123545 2.71756736 -1.92911079 1.67748765 0 0 Z " fill="#10272A" transform="translate(55,159)"/>
<path d="M0 0 C-4.96096573 1.44799761 -10.15124215 1.68865276 -15.2734375 2.20703125 C-21.06304391 3.43899152 -24.78451811 6.49347356 -28.75 10.75 C-30.484375 12.609375 -30.484375 12.609375 -32 14 C-32.66 14 -33.32 14 -34 14 C-32.63496283 8.36922167 -28.52120108 5.24434322 -24 2 C-16.85582325 -2.01587125 -7.49586743 -3.49807147 0 0 Z " fill="#EAF8F8" transform="translate(358,151)"/>
<path d="M0 0 C2.64068986 0.36423308 3.75999119 0.73119013 5.5625 2.75 C8.90770395 7.9859714 11.68191996 13.23207144 14 19 C13.34 19.33 12.68 19.66 12 20 C11.34 19.34 10.68 18.68 10 18 C7.10776497 17.53603307 7.10776497 17.53603307 3.875 17.375 C2.77929688 17.30023438 1.68359375 17.22546875 0.5546875 17.1484375 C-0.28835937 17.09945312 -1.13140625 17.05046875 -2 17 C-2 16.67 -2 16.34 -2 16 C3.445 15.505 3.445 15.505 9 15 C9 14.34 9 13.68 9 13 C8.02417969 13.0721875 7.04835938 13.144375 6.04296875 13.21875 C4.77066406 13.3115625 3.49835937 13.404375 2.1875 13.5 C0.29064453 13.63921875 0.29064453 13.63921875 -1.64453125 13.78125 C-3.75978517 13.91914781 -5.88025592 14 -8 14 C-8.33 13.34 -8.66 12.68 -9 12 C-1.08 11.505 -1.08 11.505 7 11 C5.824375 8.834375 5.824375 8.834375 4.625 6.625 C4.18414062 5.81289062 3.74328125 5.00078125 3.2890625 4.1640625 C2.0556107 1.89185698 2.0556107 1.89185698 0 0 Z " fill="#001313" transform="translate(36,166)"/>
<path d="M0 0 C8.58 0 17.16 0 26 0 C25.34 1.32 24.68 2.64 24 4 C21.27076612 4.0270817 18.54180363 4.04687847 15.8125 4.0625 C15.04357422 4.07087891 14.27464844 4.07925781 13.48242188 4.08789062 C4.2549867 4.12749335 4.2549867 4.12749335 0 2 C0 1.34 0 0.68 0 0 Z " fill="#041B1F" transform="translate(96,161)"/>
<path d="M0 0 C0 0.33 0 0.66 0 1 C-1.65 1.33 -3.3 1.66 -5 2 C-5 2.99 -5 3.98 -5 5 C-3.02 5 -1.04 5 1 5 C1 5.33 1 5.66 1 6 C-2.12482562 6.08687496 -5.24934246 6.14034568 -8.375 6.1875 C-9.26445313 6.21263672 -10.15390625 6.23777344 -11.0703125 6.26367188 C-12.34648438 6.27817383 -12.34648438 6.27817383 -13.6484375 6.29296875 C-14.82672119 6.31653442 -14.82672119 6.31653442 -16.02880859 6.34057617 C-16.67930176 6.22818604 -17.32979492 6.1157959 -18 6 C-18.66 5.01 -19.32 4.02 -20 3 C-14.00424316 -0.99717123 -6.96065698 -0.1114696 0 0 Z " fill="#1E3031" transform="translate(108,162)"/>
<path d="M0 0 C9.99916597 -0.68435356 18.39474141 1.27890554 26.45703125 7.4453125 C29.41785317 10.42862168 31.63555886 14.02748648 33 18 C32.625 20.27734375 32.625 20.27734375 32 22 C31.731875 21.43152344 31.46375 20.86304688 31.1875 20.27734375 C26.9155684 11.85995221 21.17524138 6.29996768 12.38671875 2.7109375 C8.32034924 1.4996785 4.22445614 1.17638648 0 1 C0 0.67 0 0.34 0 0 Z " fill="#95A2A7" transform="translate(477,145)"/>
<path d="M0 0 C1.98 0.495 1.98 0.495 4 1 C3.01 1.495 3.01 1.495 2 2 C2.969375 2.474375 3.93875 2.94875 4.9375 3.4375 C8 5 8 5 9 6 C9.23287008 7.68183948 9.41264166 9.3712416 9.5625 11.0625 C9.64628906 11.98160156 9.73007813 12.90070313 9.81640625 13.84765625 C9.87699219 14.55792969 9.93757813 15.26820313 10 16 C10.99 15.34 11.98 14.68 13 14 C11.6178686 17.75149952 10.71673111 20.14163444 7 22 C7 17.05 7 12.1 7 7 C6.67 7.99 6.34 8.98 6 10 C5.01 9.67 4.02 9.34 3 9 C3 8.34 3 7.68 3 7 C2.34 6.67 1.68 6.34 1 6 C1.33 5.34 1.66 4.68 2 4 C1.01 4 0.02 4 -1 4 C-0.67 2.68 -0.34 1.36 0 0 Z " fill="#172C2E" transform="translate(74,153)"/>
<path d="M0 0 C0.9178125 0.05220703 1.835625 0.10441406 2.78125 0.15820312 C5.02129261 0.2865389 7.26072975 0.42142597 9.5 0.5625 C9.5 0.8925 9.5 1.2225 9.5 1.5625 C8.57058594 1.61148438 7.64117187 1.66046875 6.68359375 1.7109375 C-2.73915591 2.28082225 -9.92714992 3.71346527 -18.5 7.5625 C-18.5 5.22916667 -18.5 2.89583333 -18.5 0.5625 C-12.21187205 -0.42920242 -6.34227619 -0.40100147 0 0 Z " fill="#1A3135" transform="translate(103.5,157.4375)"/>
<path d="M0 0 C6.93 0 13.86 0 21 0 C20.01 1.485 20.01 1.485 19 3 C17.02880859 3.34057617 17.02880859 3.34057617 14.6484375 3.29296875 C13.79765625 3.28330078 12.946875 3.27363281 12.0703125 3.26367188 C11.18085937 3.23853516 10.29140625 3.21339844 9.375 3.1875 C8.4778125 3.17396484 7.580625 3.16042969 6.65625 3.14648438 C4.43690211 3.11106925 2.21874812 3.06168461 0 3 C0 2.01 0 1.02 0 0 Z " fill="#0E2224" transform="translate(85,174)"/>
<path d="M0 0 C0 0.33 0 0.66 0 1 C-0.68964844 1.02578125 -1.37929688 1.0515625 -2.08984375 1.078125 C-13.74965796 1.78187236 -20.87361476 5.87361476 -29 14 C-28.92037294 11.29267998 -28.46129431 9.52431998 -26.65625 7.47265625 C-24.84252522 5.85267025 -22.97953929 4.41230289 -21 3 C-20.41089844 2.56945312 -19.82179688 2.13890625 -19.21484375 1.6953125 C-13.06301321 -2.09243879 -6.9031975 -0.96813136 0 0 Z " fill="#BDCBCC" transform="translate(487,146)"/>
<path d="M0 0 C2.46800047 1.15173355 4.04783565 2.04783565 6 4 C5.625 6.625 5.625 6.625 5 9 C3.02 9.33 1.04 9.66 -1 10 C-0.67 8.68 -0.34 7.36 0 6 C-0.99 6.33 -1.98 6.66 -3 7 C-3 3.48283697 -2.17554415 2.62878252 0 0 Z " fill="#383737" transform="translate(498,156)"/>
<path d="M0 0 C2.33294775 -0.04241723 4.66702567 -0.04092937 7 0 C8 1 8 1 8.09765625 2.84765625 C8.04882812 5.92382812 8.04882812 5.92382812 8 9 C7.34 9 6.68 9 6 9 C5.67 8.34 5.34 7.68 5 7 C4.34 7.66 3.68 8.32 3 9 C2.01 9 1.02 9 0 9 C0 6.03 0 3.06 0 0 Z " fill="#2A2A29" transform="translate(479,149)"/>
<path d="M0 0 C5.65394631 -0.34615998 9.03006806 0.56574762 14 3 C14 4.32 14 5.64 14 7 C13.34 7.66 12.68 8.32 12 9 C11.505 8.34 11.01 7.68 10.5 7 C6.89659788 4.1172783 4.53014958 4.69799003 0 5 C0 3.35 0 1.7 0 0 Z M5 1 C6 4 6 4 6 4 Z " fill="#0E2427" transform="translate(60,157)"/>
<path d="M0 0 C-1.375 2 -1.375 2 -3 4 C-3.66 4 -4.32 4 -5 4 C-5 5.32 -5 6.64 -5 8 C-5.66 8 -6.32 8 -7 8 C-7.33 10.31 -7.66 12.62 -8 15 C-9.5390625 13.81640625 -9.5390625 13.81640625 -11 12 C-10.9609375 9.58984375 -10.9609375 9.58984375 -10.375 6.9375 C-10.19710937 6.05964844 -10.01921875 5.18179688 -9.8359375 4.27734375 C-8.05079961 -0.58590574 -4.5080335 -0.20035704 0 0 Z " fill="#132829" transform="translate(53,159)"/>
<path d="M0 0 C5.61 0 11.22 0 17 0 C17 0.99 17 1.98 17 3 C10.07 2.505 10.07 2.505 3 2 C3.33 4.64 3.66 7.28 4 10 C2.5625 8.9375 2.5625 8.9375 1 7 C0.67 4.69 0.34 2.38 0 0 Z " fill="#EAF9F9" transform="translate(265,151)"/>
<path d="M0 0 C-0.33 0.33 -0.66 0.66 -1 1 C-0.01 1.66 0.98 2.32 2 3 C-5.92 3 -13.84 3 -22 3 C-22.33 2.01 -22.66 1.02 -23 0 C-19.54210946 -0.19635974 -16.08367803 -0.38058252 -12.625 -0.5625 C-11.64015625 -0.61857422 -10.6553125 -0.67464844 -9.640625 -0.73242188 C-8.69960938 -0.78076172 -7.75859375 -0.82910156 -6.7890625 -0.87890625 C-5.48509521 -0.94960327 -5.48509521 -0.94960327 -4.15478516 -1.02172852 C-2 -1 -2 -1 0 0 Z " fill="#000B0B" transform="translate(35,166)"/>
<path d="M0 0 C4.63010995 3.55061803 9.35405591 7.18433087 11 13 C11.31386863 17.68744792 11.23415833 22.31032902 11 27 C10.67 27 10.34 27 10 27 C9.91363281 26.154375 9.82726562 25.30875 9.73828125 24.4375 C8.83101323 17.11276736 7.59375695 11.8141879 3 6 C2.236875 5.01 1.47375 4.02 0.6875 3 C0.130625 2.34 -0.42625 1.68 -1 1 C-0.67 0.67 -0.34 0.34 0 0 Z " fill="#06070A" transform="translate(498,152)"/>
<path d="M0 0 C6.14020084 2.24353492 9.18450173 4.45977836 12.25 10.4375 C13.1144741 13.39111984 13.14241304 15.93811971 13 19 C10.42871382 17.01309705 9.96304838 15.85747232 9.125 12.625 C7.83009054 8.45251397 6.36789946 6.7263948 3 4 C0.82653432 3.13880866 0.82653432 3.13880866 -1 3 C-0.67 2.01 -0.34 1.02 0 0 Z " fill="#1C1C1C" transform="translate(486,159)"/>
<path d="M0 0 C3.05071175 -0.287803 5.96060262 -0.4472872 9 0 C11.10361696 2.4223468 12 3.78245634 12 7 C8.04 6.67 4.08 6.34 0 6 C0 4.02 0 2.04 0 0 Z M2 3 C2 3.66 2 4.32 2 5 C3.98 5 5.96 5 8 5 C8 4.34 8 3.68 8 3 C6.02 3 4.04 3 2 3 Z " fill="#0A1D1E" transform="translate(59,162)"/>
<path d="M0 0 C2.79297711 0.44099639 5.31340243 1.10446748 8 2 C7.45773019 5.79588866 5.79872437 7.47211993 3 10 C1.12213895 7.06073923 -0.50118334 4.49171665 -1 1 C-0.67 0.67 -0.34 0.34 0 0 Z " fill="#5A5A5A" transform="translate(463,157)"/>
<path d="M0 0 C3.12540987 0.48834529 5.62421097 1.26282567 8.5625 2.5 C13.86398947 4.58599874 19.36110466 4.72745339 25 5 C25 5.66 25 6.32 25 7 C14.95292616 7.7920321 8.36944298 6.73904662 0 1 C0 0.67 0 0.34 0 0 Z " fill="#97A3A6" transform="translate(463,198)"/>
<path d="M0 0 C0.99 0 1.98 0 3 0 C2 3 2 3 0.15234375 4.16796875 C-0.57855469 4.50441406 -1.30945313 4.84085938 -2.0625 5.1875 C-2.79597656 5.53167969 -3.52945313 5.87585938 -4.28515625 6.23046875 C-4.85105469 6.48441406 -5.41695312 6.73835937 -6 7 C-6 6.34 -6 5.68 -6 5 C-9.96 5 -13.92 5 -18 5 C-17.34 4.01 -16.68 3.02 -16 2 C-13.28515625 1.671875 -13.28515625 1.671875 -10.0625 1.75 C-9.00160156 1.76546875 -7.94070312 1.7809375 -6.84765625 1.796875 C-4 2 -4 2 -1 3 C-0.67 2.01 -0.34 1.02 0 0 Z " fill="#1C3236" transform="translate(97,182)"/>
<path d="M0 0 C0.33 0.66 0.66 1.32 1 2 C0.33333333 3.66666667 -0.33333333 5.33333333 -1 7 C-1.165 8.19625 -1.33 9.3925 -1.5 10.625 C-2 14 -2 14 -4 17 C-4.66 17 -5.32 17 -6 17 C-6.33 17.66 -6.66 18.32 -7 19 C-9.40814077 15.48812804 -10.36629408 13.27343092 -10 9 C-7.48916886 10.25541557 -7.12874554 11.50063488 -6 14 C-5.65066406 13.07316406 -5.30132812 12.14632812 -4.94140625 11.19140625 C-4.48636719 9.99386719 -4.03132813 8.79632813 -3.5625 7.5625 C-3.11003906 6.36753906 -2.65757812 5.17257813 -2.19140625 3.94140625 C-1 1 -1 1 0 0 Z " fill="#EAF6F7" transform="translate(299,165)"/>
<path d="M0 0 C0.99 0.33 1.98 0.66 3 1 C-1.16962677 5.86456456 -6.05877914 8.63358152 -12 11 C-12.99 11 -13.98 11 -15 11 C-14.67 10.01 -14.34 9.02 -14 8 C-11.85546875 6.97265625 -11.85546875 6.97265625 -9.1875 6.0625 C-5.28104354 4.61504332 -2.63744504 3.35674823 0 0 Z " fill="#13161A" transform="translate(501,192)"/>
<path d="M0 0 C4.62 0 9.24 0 14 0 C13.01 1.485 13.01 1.485 12 3 C9.47802734 3.34057617 9.47802734 3.34057617 6.3359375 3.29296875 C5.21445313 3.28330078 4.09296875 3.27363281 2.9375 3.26367188 C1.761875 3.23853516 0.58625 3.21339844 -0.625 3.1875 C-2.40003906 3.16719727 -2.40003906 3.16719727 -4.2109375 3.14648438 C-7.14107539 3.11103916 -10.07031459 3.06162769 -13 3 C-13 2.67 -13 2.34 -13 2 C-6.565 1.505 -6.565 1.505 0 1 C0 0.67 0 0.34 0 0 Z " fill="#011317" transform="translate(103,166)"/>
<path d="M0 0 C0.66 0.33 1.32 0.66 2 1 C1.2884375 1.6496875 1.2884375 1.6496875 0.5625 2.3125 C-1.23686957 4.02309613 -1.23686957 4.02309613 -2 7 C-2.66 7 -3.32 7 -4 7 C-3.01 8.32 -2.02 9.64 -1 11 C-1.99 11 -2.98 11 -4 11 C-4.33 11.66 -4.66 12.32 -5 13 C-3.68 13.33 -2.36 13.66 -1 14 C-1.99 14.33 -2.98 14.66 -4 15 C-4 15.66 -4 16.32 -4 17 C-4.66 17 -5.32 17 -6 17 C-6.33 14.03 -6.66 11.06 -7 8 C-6.34 8 -5.68 8 -5 8 C-5 6.68 -5 5.36 -5 4 C-2.5 1.75 -2.5 1.75 0 0 Z " fill="#011517" transform="translate(53,159)"/>
<path d="M0 0 C0.391875 0.53625 0.78375 1.0725 1.1875 1.625 C5.21086578 7.43089858 5.21086578 7.43089858 11 11 C11 11.99 11 12.98 11 14 C6.54443592 12.59967986 4.00046335 10.56811858 1 7 C-0.3125 3.6875 -0.3125 3.6875 -1 1 C-0.67 0.67 -0.34 0.34 0 0 Z " fill="#1A1A1A" transform="translate(467,177)"/>
<path d="M0 0 C7.425 0.99 7.425 0.99 15 2 C15 2.66 15 3.32 15 4 C9.39 4 3.78 4 -2 4 C-1.34 2.68 -0.68 1.36 0 0 Z " fill="#2B3C3F" transform="translate(89,168)"/>
<path d="M0 0 C7.11341265 -0.45164525 11.71546794 0.67202085 18 4 C18 4.99 18 5.98 18 7 C16.93072266 6.58427734 16.93072266 6.58427734 15.83984375 6.16015625 C10.52688947 4.15081553 5.66580592 2.50362719 0 2 C0 1.34 0 0.68 0 0 Z " fill="#0C0E0F" transform="translate(479,147)"/>
<path d="M0 0 C4.95 0 9.9 0 15 0 C15.33 0.99 15.66 1.98 16 3 C13.89646505 3.0810206 11.79204048 3.13919907 9.6875 3.1875 C8.51574219 3.22230469 7.34398437 3.25710937 6.13671875 3.29296875 C3 3 3 3 0 0 Z " fill="#273636" transform="translate(30,179)"/>
<path d="M0 0 C5.17226615 4.6873662 8.98925493 10.31728181 13 16 C12.67 16.66 12.34 17.32 12 18 C7.20920913 13.64473557 3.28423917 8.58415305 0 3 C0 2.01 0 1.02 0 0 Z " fill="#EAF7F7" transform="translate(403,140)"/>
<path d="M0 0 C6.75 0.75 6.75 0.75 9 3 C9 4.32 9 5.64 9 7 C9.66 7.33 10.32 7.66 11 8 C9.68 9.32 8.36 10.64 7 12 C6.979375 10.906875 6.95875 9.81375 6.9375 8.6875 C6.43885957 5.04267663 6.43885957 5.04267663 4.375 3.8671875 C2.21776965 2.93575266 2.21776965 2.93575266 -1 2 C-0.67 1.34 -0.34 0.68 0 0 Z " fill="#051D21" transform="translate(76,154)"/>
<path d="M0 0 C0.99 0.495 0.99 0.495 2 1 C2 1.99 2 2.98 2 4 C2.66 4 3.32 4 4 4 C4.8353125 5.794375 4.8353125 5.794375 5.6875 7.625 C7.67113911 11.6207175 10.02266208 14.69184676 13 18 C9.43627031 17.44581309 8.07380336 16.37119172 5.9375 13.5 C2.91916018 9.28196562 1.31578515 4.9861332 0 0 Z " fill="#ADBBBE" transform="translate(452,180)"/>
<path d="M0 0 C6.27 0 12.54 0 19 0 C19.33 0.99 19.66 1.98 20 3 C14.06 3 8.12 3 2 3 C2 2.34 2 1.68 2 1 C1.34 0.67 0.68 0.34 0 0 Z " fill="#000F0F" transform="translate(22,174)"/>
<path d="M0 0 C5.94 0.33 11.88 0.66 18 1 C18 1.33 18 1.66 18 2 C14.04 2 10.08 2 6 2 C6.33 3.32 6.66 4.64 7 6 C4 6 4 6 1.8125 4.125 C0 2 0 2 0 0 Z " fill="#223736" transform="translate(5,164)"/>
<path d="M0 0 C2.5654594 2.5654594 2.54046087 4.47686668 3 8 C1 6 1 6 0 3 C-4.29 2.67 -8.58 2.34 -13 2 C-12.67 3.65 -12.34 5.3 -12 7 C-12.99 7.495 -12.99 7.495 -14 8 C-14.33 5.69 -14.66 3.38 -15 1 C-12.54220024 0.77873822 -10.08472352 0.57249605 -7.625 0.375 C-6.57699219 0.27832031 -6.57699219 0.27832031 -5.5078125 0.1796875 C-3.67630889 0.03880261 -1.83687252 0.01238341 0 0 Z " fill="#E7F0EF" transform="translate(526,150)"/>
<path d="M0 0 C2.31 0 4.62 0 7 0 C7 0.66 7 1.32 7 2 C4.49502996 3.25248502 2.79146726 3.11374406 -0.0078125 3.09765625 C-0.99394531 3.09443359 -1.98007813 3.09121094 -2.99609375 3.08789062 C-4.02863281 3.07951172 -5.06117187 3.07113281 -6.125 3.0625 C-7.68541016 3.05573242 -7.68541016 3.05573242 -9.27734375 3.04882812 C-11.85161962 3.03701952 -14.42578146 3.02055075 -17 3 C-17 2.67 -17 2.34 -17 2 C-11.39 2 -5.78 2 0 2 C0 1.34 0 0.68 0 0 Z " fill="#03181B" transform="translate(104,170)"/>
<path d="M0 0 C4.79063835 0.42270338 7.73224633 2.65189173 11 6 C13.4375 9.125 13.4375 9.125 15 12 C14.67 12.99 14.34 13.98 14 15 C13.731875 14.38125 13.46375 13.7625 13.1875 13.125 C12.04443152 10.7004767 12.04443152 10.7004767 9 9 C8.67 8.01 8.34 7.02 8 6 C4.99992729 4.29144978 4.99992729 4.29144978 2 3 C2 2.34 2 1.68 2 1 C1.34 0.67 0.68 0.34 0 0 Z " fill="#EAF6F7" transform="translate(359,152)"/>
<path d="M0 0 C5.28 0 10.56 0 16 0 C16 0.66 16 1.32 16 2 C12.93466836 3.53266582 9.73245728 3.10276471 6.375 3.0625 C5.66859375 3.05798828 4.9621875 3.05347656 4.234375 3.04882812 C2.48954725 3.03703875 0.744763 3.01910324 -1 3 C-0.67 2.01 -0.34 1.02 0 0 Z " fill="#001618" transform="translate(84,178)"/>
<path d="M0 0 C3.82562049 3.4229236 5.84652754 5.96666561 7 11 C7.125 13.875 7.125 13.875 7 16 C4.27821353 13.62916021 3.11230393 11.3466216 1.8125 8 C1.46832031 7.13375 1.12414062 6.2675 0.76953125 5.375 C0 3 0 3 0 0 Z " fill="#EAF8F9" transform="translate(274,174)"/>
<path d="M0 0 C0.66 0 1.32 0 2 0 C1.43174347 5.54050113 -0.62886517 10.03715966 -3 15 C-3.66 15 -4.32 15 -5 15 C-4.39009109 11.44219804 -3.4216319 8.3171411 -2 5 C-1.34 5 -0.68 5 0 5 C0 3.35 0 1.7 0 0 Z " fill="#EAF5F6" transform="translate(548,182)"/>
<path d="M0 0 C1.98 0.495 1.98 0.495 4 1 C4.33 2.98 4.66 4.96 5 7 C3.02 7 1.04 7 -1 7 C-0.67 4.69 -0.34 2.38 0 0 Z " fill="#162524" transform="translate(62,171)"/>
<path d="M0 0 C1.33836305 4.01508916 0.36510316 6.04120083 -1 10 C-2.625 12.9375 -2.625 12.9375 -4 15 C-5.60831513 10.1750546 -3.9480286 6.54540006 -2 2 C-1.34 2 -0.68 2 0 2 C0 1.34 0 0.68 0 0 Z " fill="#EDF5F6" transform="translate(594,156)"/>
<path d="M0 0 C7.59 0 15.18 0 23 0 C23 0.33 23 0.66 23 1 C17.06 1 11.12 1 5 1 C5 1.66 5 2.32 5 3 C3.0625 2.625 3.0625 2.625 1 2 C0.67 1.34 0.34 0.68 0 0 Z " fill="#001010" transform="translate(16,170)"/>
<path d="M0 0 C0 0.33 0 0.66 0 1 C-1.051875 1.07347656 -1.051875 1.07347656 -2.125 1.1484375 C-7.96734159 1.60883942 -13.36093962 2.40403951 -19 4 C-19 3.34 -19 2.68 -19 2 C-13.04177295 -2.25587646 -6.96601142 -0.85783227 0 0 Z " fill="#C9D9DA" transform="translate(487,146)"/>
<path d="M0 0 C3.96 0 7.92 0 12 0 C11.67 0.66 11.34 1.32 11 2 C8.93359375 2.6328125 8.93359375 2.6328125 6.4375 3.125 C5.19806641 3.37636719 5.19806641 3.37636719 3.93359375 3.6328125 C3.29550781 3.75398437 2.65742187 3.87515625 2 4 C1.34 2.68 0.68 1.36 0 0 Z " fill="#00100F" transform="translate(5,161)"/>
<path d="M0 0 C4.29 0.33 8.58 0.66 13 1 C13 1.66 13 2.32 13 3 C11.39592672 3.02708567 9.7917215 3.04643483 8.1875 3.0625 C6.84751953 3.07990234 6.84751953 3.07990234 5.48046875 3.09765625 C3 3 3 3 0 2 C0 1.34 0 0.68 0 0 Z " fill="#030406" transform="translate(473,200)"/>
<path d="M0 0 C0.66 0 1.32 0 2 0 C2.33 1.32 2.66 2.64 3 4 C2.34 4 1.68 4 1 4 C0.34 5.98 -0.32 7.96 -1 10 C-1.66 10 -2.32 10 -3 10 C-2.39009109 6.44219804 -1.4216319 3.3171411 0 0 Z " fill="#EBF4F3" transform="translate(552,171)"/>
<path d="M0 0 C0 1.98 0 3.96 0 6 C-0.99 6.495 -0.99 6.495 -2 7 C-2.4125 6.360625 -2.825 5.72125 -3.25 5.0625 C-5.17810487 2.79009069 -6.11424181 2.39803561 -9 2 C-5.62385079 -0.25076614 -3.93268335 0 0 0 Z " fill="#020F0E" transform="translate(44,162)"/>
<path d="M0 0 C0.99 0 1.98 0 3 0 C3 0.66 3 1.32 3 2 C4.175625 2.185625 4.175625 2.185625 5.375 2.375 C8 3 8 3 10 5 C9.625 7.125 9.625 7.125 9 9 C8.46375 8.21625 7.9275 7.4325 7.375 6.625 C4.69757158 3.66573701 2.81566975 2.95391744 -1 2 C-0.67 1.34 -0.34 0.68 0 0 Z " fill="#F0F9F9" transform="translate(351,161)"/>
<path d="M0 0 C0.33 0.66 0.66 1.32 1 2 C1.99 2.33 2.98 2.66 4 3 C5.1875 6.5625 5.1875 6.5625 6 10 C5.01 10 4.02 10 3 10 C0 3.375 0 3.375 0 0 Z " fill="#E9F9F9" transform="translate(281,191)"/>
<path d="M0 0 C0.99 1.32 1.98 2.64 3 4 C2.34 4.66 1.68 5.32 1 6 C0.34 5.34 -0.32 4.68 -1 4 C-3.89223503 3.53603307 -3.89223503 3.53603307 -7.125 3.375 C-8.76855469 3.26285156 -8.76855469 3.26285156 -10.4453125 3.1484375 C-11.70988281 3.07496094 -11.70988281 3.07496094 -13 3 C-13 2.67 -13 2.34 -13 2 C-12.14535156 1.93941406 -11.29070313 1.87882813 -10.41015625 1.81640625 C-8.75306641 1.69072266 -8.75306641 1.69072266 -7.0625 1.5625 C-5.96035156 1.48128906 -4.85820313 1.40007812 -3.72265625 1.31640625 C-1.08890097 1.29581916 -1.08890097 1.29581916 0 0 Z " fill="#000A0B" transform="translate(47,180)"/>
<path d="M0 0 C0.66 0.33 1.32 0.66 2 1 C2.1953125 7.0546875 2.1953125 7.0546875 2 9 C1.34 9.66 0.68 10.32 0 11 C-1.76062164 7.67438135 -2.10784228 6.40826005 -1.125 2.6875 C-0.568125 1.3571875 -0.568125 1.3571875 0 0 Z " fill="#0C2121" transform="translate(44,163)"/>
<path d="M0 0 C0.66 0 1.32 0 2 0 C2.66 1.98 3.32 3.96 4 6 C3.01 6.33 2.02 6.66 1 7 C1 6.34 1 5.68 1 5 C0.34 5 -0.32 5 -1 5 C-1.33 5.66 -1.66 6.32 -2 7 C-2.33 6.01 -2.66 5.02 -3 4 C-1.6875 1.8125 -1.6875 1.8125 0 0 Z " fill="#031414" transform="translate(57,163)"/>
<path d="M0 0 C3.3 0 6.6 0 10 0 C9.34 1.32 8.68 2.64 8 4 C5.36 3.34 2.72 2.68 0 2 C0 1.34 0 0.68 0 0 Z " fill="#011317" transform="translate(112,161)"/>
<path d="M0 0 C0.66 0 1.32 0 2 0 C1.46274105 3.37705625 0.88935377 6.696686 0 10 C-0.99 9.67 -1.98 9.34 -3 9 C-2.5359375 7.88625 -2.5359375 7.88625 -2.0625 6.75 C-1.1905075 4.49307824 -0.52332993 2.3549847 0 0 Z " fill="#EDF6F7" transform="translate(580,191)"/>
<path d="M0 0 C0 0.66 0 1.32 0 2 C-1.65 2.33 -3.3 2.66 -5 3 C-5 3.66 -5 4.32 -5 5 C-8 7 -8 7 -11 7 C-11 6.34 -11 5.68 -11 5 C-9.35546875 3.7109375 -9.35546875 3.7109375 -7.1875 2.375 C-6.47980469 1.92898437 -5.77210938 1.48296875 -5.04296875 1.0234375 C-3 0 -3 0 0 0 Z " fill="#E9F8F8" transform="translate(223,151)"/>
<path d="M0 0 C0.639375 0.804375 1.27875 1.60875 1.9375 2.4375 C3.40603502 4.2750504 3.40603502 4.2750504 5 6 C5.04080783 7.99958364 5.04254356 10.00045254 5 12 C2.2289312 9.65408148 1.47940716 7.85223799 0.8125 4.3125 C0.65394531 3.50425781 0.49539063 2.69601563 0.33203125 1.86328125 C0.22246094 1.24839844 0.11289062 0.63351563 0 0 Z " fill="#E8F7F7" transform="translate(269,162)"/>
<path d="M0 0 C0.66 0 1.32 0 2 0 C2 2.64 2 5.28 2 8 C1.01 8.495 1.01 8.495 0 9 C-1.125 2.25 -1.125 2.25 0 0 Z " fill="#213230" transform="translate(56,168)"/>
<path d="M0 0 C2.31 1.98 4.62 3.96 7 6 C6.67 6.99 6.34 7.98 6 9 C3.69 6.69 1.38 4.38 -1 2 C-0.67 1.34 -0.34 0.68 0 0 Z " fill="#000104" transform="translate(498,152)"/>
<path d="M0 0 C2.55934601 1.279673 2.6989233 2.24201036 3.6875 4.875 C3.95949219 5.57367188 4.23148437 6.27234375 4.51171875 6.9921875 C5 9 5 9 4 12 C4 11.34 4 10.68 4 10 C3.34 10 2.68 10 2 10 C1.34 6.7 0.68 3.4 0 0 Z " fill="#EAF6F7" transform="translate(284,161)"/>
<path d="M0 0 C2 1.8125 2 1.8125 4 4 C4 4.99 4 5.98 4 7 C4.99 7.33 5.98 7.66 7 8 C5.02 8.99 5.02 8.99 3 10 C0 3.375 0 3.375 0 0 Z " fill="#EEF7F8" transform="translate(561,192)"/>
<path d="M0 0 C1.98 1.65 3.96 3.3 6 5 C5.34 6.32 4.68 7.64 4 9 C0 3.375 0 3.375 0 0 Z " fill="#011517" transform="translate(68,162)"/>
<path d="M0 0 C-0.99 0.66 -1.98 1.32 -3 2 C-3.25030977 4.58380177 -3.25030977 4.58380177 -3 7 C-3.99 6.67 -4.98 6.34 -6 6 C-6.33 4.35 -6.66 2.7 -7 1 C-4.53721199 -0.231394 -2.7204945 -0.07159196 0 0 Z " fill="#0B2B2B" transform="translate(9,160)"/>
<path d="M0 0 C0.928125 0.20625 1.85625 0.4125 2.8125 0.625 C-0.12470508 2.14799523 -3.1043649 3.42600302 -6.1875 4.625 C-6.1875 3.635 -6.1875 2.645 -6.1875 1.625 C-3.1875 -0.375 -3.1875 -0.375 0 0 Z " fill="#EDF8F8" transform="translate(346.1875,161.375)"/>
<path d="M0 0 C2.9719385 1.12451727 5.33440687 2.22293791 8 4 C7.34 4.66 6.68 5.32 6 6 C3.96166576 4.7260411 1.96147874 3.38938077 0 2 C0 1.34 0 0.68 0 0 Z " fill="#121416" transform="translate(466,196)"/>
<path d="M0 0 C0.66 0 1.32 0 2 0 C0.52307692 5.66153846 0.52307692 5.66153846 -2.125 7.375 C-3.053125 7.684375 -3.053125 7.684375 -4 8 C-2.87548273 5.0280615 -1.77706209 2.66559313 0 0 Z " fill="#011719" transform="translate(80,180)"/>
<path d="M0 0 C0.66 0.99 1.32 1.98 2 3 C2.66 2.67 3.32 2.34 4 2 C3.67 3.98 3.34 5.96 3 8 C0.52557871 5.84832931 -0.56238367 4.28212246 -1 1 C-0.67 0.67 -0.34 0.34 0 0 Z " fill="#011517" transform="translate(49,176)"/>
<path d="M0 0 C0.66 0.33 1.32 0.66 2 1 C1.67 2.65 1.34 4.3 1 6 C-0.65 6.33 -2.3 6.66 -4 7 C-3.67 6.34 -3.34 5.68 -3 5 C-2.34 5 -1.68 5 -1 5 C-0.67 3.35 -0.34 1.7 0 0 Z " fill="#5D5D5D" transform="translate(502,159)"/>
<path d="M0 0 C2.31 0 4.62 0 7 0 C6.01 0.495 6.01 0.495 5 1 C4.34444881 3.52733235 4.34444881 3.52733235 4 6 C0 1.125 0 1.125 0 0 Z " fill="#D1D1D1" transform="translate(479,149)"/>
<path d="M0 0 C0.33 0.66 0.66 1.32 1 2 C-0.91522803 6.03205902 -1.85351878 6.92675939 -6 9 C-4.02 6.03 -2.04 3.06 0 0 Z " fill="#98A5A7" transform="translate(507,188)"/>
<path d="M0 0 C0.99 0.33 1.98 0.66 3 1 C2 4 2 4 -1 6 C-1.66 4.68 -2.32 3.36 -3 2 C-2.34 2 -1.68 2 -1 2 C-0.67 1.34 -0.34 0.68 0 0 Z " fill="#0B2123" transform="translate(60,189)"/>
<path d="M0 0 C0.66 0 1.32 0 2 0 C1.25 5.75 1.25 5.75 -1 8 C-2.2077558 4.37673261 -1.54311128 3.35853631 0 0 Z " fill="#EDF6F8" transform="translate(585,177)"/>
<path d="M0 0 C1.32 0 2.64 0 4 0 C3.67 1.32 3.34 2.64 3 4 C1.68 4 0.36 4 -1 4 C-0.67 2.68 -0.34 1.36 0 0 Z " fill="#071F24" transform="translate(70,152)"/>
<path d="" fill="#828E94" transform="translate(0,0)"/>
<path d="" fill="#E9F4F8" transform="translate(0,0)"/>
<path d="M0 0 C2 1 2 1 2 1 Z " fill="#E6EFF1" transform="translate(268,174)"/>
<path d="M0 0 C2 1 2 1 2 1 Z " fill="#E6F0F2" transform="translate(347,165)"/>
<path d="M0 0 C2 1 2 1 2 1 Z " fill="#EBF0F0" transform="translate(248,148)"/>
<path d="M0 0 C2 1 2 1 2 1 Z " fill="#E7F0F1" transform="translate(219,144)"/>
<path d="" fill="#C6C9C8" transform="translate(0,0)"/>
<path d="" fill="#AFBEC1" transform="translate(0,0)"/>
<path d="" fill="#D4DEDF" transform="translate(0,0)"/>
<path d="" fill="#B8BBBC" transform="translate(0,0)"/>
<path d="" fill="#B1B4B6" transform="translate(0,0)"/>
<path d="" fill="#B7BBBC" transform="translate(0,0)"/>
<path d="" fill="#E7EEF0" transform="translate(0,0)"/>
<path d="" fill="#EBF2F4" transform="translate(0,0)"/>
<path d="" fill="#DEE5E7" transform="translate(0,0)"/>
<path d="" fill="#E7F0F1" transform="translate(0,0)"/>
<path d="" fill="#E7EFF1" transform="translate(0,0)"/>
<path d="" fill="#DEE6E7" transform="translate(0,0)"/>
<path d="" fill="#CBD6D7" transform="translate(0,0)"/>
<path d="" fill="#CBD6D7" transform="translate(0,0)"/>
<path d="" fill="#E3E9EC" transform="translate(0,0)"/>
<path d="" fill="#B8BBBD" transform="translate(0,0)"/>
<path d="" fill="#B5B9BB" transform="translate(0,0)"/>
<path d="" fill="#EBF2F4" transform="translate(0,0)"/>
<path d="" fill="#E7EFF0" transform="translate(0,0)"/>
<path d="" fill="#DEE5E7" transform="translate(0,0)"/>
<path d="" fill="#EAF3F4" transform="translate(0,0)"/>
<path d="" fill="#D5DFE0" transform="translate(0,0)"/>
<path d="" fill="#E8EDF0" transform="translate(0,0)"/>
<path d="" fill="#D5DADD" transform="translate(0,0)"/>
<path d="" fill="#B3B7B8" transform="translate(0,0)"/>
<path d="" fill="#D5DCDE" transform="translate(0,0)"/>
<path d="" fill="#E8EEF0" transform="translate(0,0)"/>
<path d="" fill="#E7EEF0" transform="translate(0,0)"/>
<path d="" fill="#E7EFF0" transform="translate(0,0)"/>
<path d="" fill="#EAF3F4" transform="translate(0,0)"/>
<path d="" fill="#F1F6F7" transform="translate(0,0)"/>
<path d="" fill="#EEF2F4" transform="translate(0,0)"/>
<path d="" fill="#EBF0F2" transform="translate(0,0)"/>
<path d="" fill="#C0C3C5" transform="translate(0,0)"/>
<path d="" fill="#F3F8F9" transform="translate(0,0)"/>
<path d="" fill="#DDE4E6" transform="translate(0,0)"/>
<path d="" fill="#EDF4F6" transform="translate(0,0)"/>
<path d="" fill="#EDFBFC" transform="translate(0,0)"/>
<path d="" fill="#F2F8F9" transform="translate(0,0)"/>
<path d="" fill="#F0F8FA" transform="translate(0,0)"/>
<path d="" fill="#F3FAFA" transform="translate(0,0)"/>
<path d="" fill="#DFE8E9" transform="translate(0,0)"/>
<path d="" fill="#DCE6E7" transform="translate(0,0)"/>
<path d="" fill="#DEE7E8" transform="translate(0,0)"/>
<path d="" fill="#BABDBD" transform="translate(0,0)"/>
<path d="" fill="#F5FEFE" transform="translate(0,0)"/>
<path d="" fill="#D4F1EE" transform="translate(0,0)"/>
<path d="" fill="#778085" transform="translate(0,0)"/>
<path d="" fill="#EAFEFE" transform="translate(0,0)"/>
<path d="" fill="#F1F9FA" transform="translate(0,0)"/>
<path d="" fill="#E5F5F6" transform="translate(0,0)"/>
<path d="" fill="#EAEDEC" transform="translate(0,0)"/>
<path d="" fill="#DBE4E4" transform="translate(0,0)"/>
<path d="" fill="#CBD0D2" transform="translate(0,0)"/>
<path d="" fill="#E7EEF0" transform="translate(0,0)"/>
<path d="" fill="#DFE9E2" transform="translate(0,0)"/>
<path d="" fill="#E7EEF0" transform="translate(0,0)"/>
<path d="" fill="#062224" transform="translate(0,0)"/>
<path d="" fill="#163639" transform="translate(0,0)"/>
<path d="" fill="#B5B9BA" transform="translate(0,0)"/>
<path d="" fill="#E3F1F2" transform="translate(0,0)"/>
<path d="" fill="#EDF2F1" transform="translate(0,0)"/>
<path d="" fill="#C4C7C6" transform="translate(0,0)"/>
<path d="" fill="#C1C3C2" transform="translate(0,0)"/>
<path d="" fill="#F1FAFB" transform="translate(0,0)"/>
<path d="" fill="#DDECF5" transform="translate(0,0)"/>
<path d="" fill="#D7DCDD" transform="translate(0,0)"/>
<path d="" fill="#B3B7B9" transform="translate(0,0)"/>
<path d="" fill="#D4E2DD" transform="translate(0,0)"/>
<path d="" fill="#ECFAFB" transform="translate(0,0)"/>
<path d="" fill="#DDE4E6" transform="translate(0,0)"/>
<path d="" fill="#E0EBEB" transform="translate(0,0)"/>
<path d="" fill="#DEE3E6" transform="translate(0,0)"/>
<path d="" fill="#BFCCCE" transform="translate(0,0)"/>
<path d="" fill="#354F51" transform="translate(0,0)"/>
<path d="" fill="#052225" transform="translate(0,0)"/>
<path d="" fill="#163639" transform="translate(0,0)"/>
<path d="" fill="#E5EDF0" transform="translate(0,0)"/>
<path d="" fill="#DBE7E8" transform="translate(0,0)"/>
<path d="" fill="#E5EBEB" transform="translate(0,0)"/>
<path d="" fill="#436063" transform="translate(0,0)"/>
<path d="" fill="#D2D7D9" transform="translate(0,0)"/>
<path d="" fill="#E2EFF2" transform="translate(0,0)"/>
<path d="" fill="#09272A" transform="translate(0,0)"/>
<path d="" fill="#D4E4E2" transform="translate(0,0)"/>
<path d="" fill="#F0F5F6" transform="translate(0,0)"/>
<path d="" fill="#D3DFE4" transform="translate(0,0)"/>
<path d="" fill="#EDFBFC" transform="translate(0,0)"/>
<path d="" fill="#E7F1F4" transform="translate(0,0)"/>
<path d="" fill="#D6E3E5" transform="translate(0,0)"/>
<path d="" fill="#EEF6F5" transform="translate(0,0)"/>
<path d="" fill="#E2F1F7" transform="translate(0,0)"/>
<path d="" fill="#EAF8F8" transform="translate(0,0)"/>
<path d="" fill="#DCE5E6" transform="translate(0,0)"/>
<path d="" fill="#DCE7EB" transform="translate(0,0)"/>
<path d="" fill="#D1DEE0" transform="translate(0,0)"/>
<path d="" fill="#B7BABC" transform="translate(0,0)"/>
<path d="" fill="#BABEBF" transform="translate(0,0)"/>
<path d="" fill="#E4F0F4" transform="translate(0,0)"/>
<path d="" fill="#B1B4B4" transform="translate(0,0)"/>
<path d="" fill="#E0EDF4" transform="translate(0,0)"/>
<path d="" fill="#B8B9B7" transform="translate(0,0)"/>
<path d="" fill="#E9F0F0" transform="translate(0,0)"/>
<path d="" fill="#899D9F" transform="translate(0,0)"/>
<path d="" fill="#2E4E54" transform="translate(0,0)"/>
<path d="" fill="#B7BABC" transform="translate(0,0)"/>
<path d="" fill="#EAFCFD" transform="translate(0,0)"/>
<path d="" fill="#B7B8B6" transform="translate(0,0)"/>
<path d="" fill="#B8B9B8" transform="translate(0,0)"/>
<path d="" fill="#DBEAEC" transform="translate(0,0)"/>
<path d="" fill="#B5B9BB" transform="translate(0,0)"/>
<path d="" fill="#93A3A4" transform="translate(0,0)"/>
<path d="" fill="#DEE9EB" transform="translate(0,0)"/>
<path d="" fill="#E0EDF4" transform="translate(0,0)"/>
<path d="" fill="#EBF2F2" transform="translate(0,0)"/>
<path d="" fill="#ECF6F6" transform="translate(0,0)"/>
<path d="" fill="#E8EEED" transform="translate(0,0)"/>
<path d="" fill="#EBF3F4" transform="translate(0,0)"/>
<path d="" fill="#D6DFDF" transform="translate(0,0)"/>
<path d="" fill="#D5DDE2" transform="translate(0,0)"/>
<path d="" fill="#EAF3F4" transform="translate(0,0)"/>
<path d="" fill="#E9F6FA" transform="translate(0,0)"/>
<path d="" fill="#EDF4F5" transform="translate(0,0)"/>
<path d="" fill="#E7EFF1" transform="translate(0,0)"/>
<path d="" fill="#E3F6F6" transform="translate(0,0)"/>
<path d="" fill="#E4F1F6" transform="translate(0,0)"/>
<path d="" fill="#E4EEF0" transform="translate(0,0)"/>
<path d="" fill="#DEE3E6" transform="translate(0,0)"/>
<path d="" fill="#E9EEEF" transform="translate(0,0)"/>
<path d="" fill="#EAF3F4" transform="translate(0,0)"/>
<path d="" fill="#E7F0F1" transform="translate(0,0)"/>
<path d="" fill="#EAFDFD" transform="translate(0,0)"/>
<path d="" fill="#ECFEFE" transform="translate(0,0)"/>
<path d="" fill="#EFFEFE" transform="translate(0,0)"/>
<path d="" fill="#E8F0F4" transform="translate(0,0)"/>
<path d="" fill="#E7ECEF" transform="translate(0,0)"/>
<path d="" fill="#E3EDEF" transform="translate(0,0)"/>
<path d="" fill="#D0D7DB" transform="translate(0,0)"/>
<path d="" fill="#F1FCFC" transform="translate(0,0)"/>
<path d="" fill="#C2C6C8" transform="translate(0,0)"/>
<path d="" fill="#B3B7B8" transform="translate(0,0)"/>
<path d="" fill="#4D656D" transform="translate(0,0)"/>
<path d="" fill="#F0F9FA" transform="translate(0,0)"/>
<path d="" fill="#E8EDF0" transform="translate(0,0)"/>
<path d="" fill="#C2C6C8" transform="translate(0,0)"/>
<path d="" fill="#C8D2D3" transform="translate(0,0)"/>
<path d="" fill="#EBF9FA" transform="translate(0,0)"/>
<path d="" fill="#DDE5E6" transform="translate(0,0)"/>
<path d="" fill="#E9F8FA" transform="translate(0,0)"/>
<path d="" fill="#DBE0E3" transform="translate(0,0)"/>
<path d="" fill="#EFF9F9" transform="translate(0,0)"/>
<path d="" fill="#D2DBDC" transform="translate(0,0)"/>
<path d="" fill="#B8BBBD" transform="translate(0,0)"/>
<path d="" fill="#EEFAFA" transform="translate(0,0)"/>
<path d="" fill="#C2C8C9" transform="translate(0,0)"/>
<path d="" fill="#E7EFF0" transform="translate(0,0)"/>
<path d="" fill="#E5F6F7" transform="translate(0,0)"/>
<path d="" fill="#103437" transform="translate(0,0)"/>
<path d="" fill="#9DAEB0" transform="translate(0,0)"/>
<path d="" fill="#799093" transform="translate(0,0)"/>
<path d="" fill="#ECF6F8" transform="translate(0,0)"/>
<path d="" fill="#EAF3F4" transform="translate(0,0)"/>
<path d="" fill="#D8DDE0" transform="translate(0,0)"/>
<path d="" fill="#5C7476" transform="translate(0,0)"/>
<path d="" fill="#092427" transform="translate(0,0)"/>
<path d="" fill="#163639" transform="translate(0,0)"/>
<path d="" fill="#17393B" transform="translate(0,0)"/>
<path d="" fill="#DDE5E6" transform="translate(0,0)"/>
<path d="" fill="#E4F1F3" transform="translate(0,0)"/>
<path d="" fill="#E5F9FA" transform="translate(0,0)"/>
<path d="" fill="#8EA1A4" transform="translate(0,0)"/>
<path d="" fill="#8A9D9F" transform="translate(0,0)"/>
<path d="" fill="#163639" transform="translate(0,0)"/>
<path d="" fill="#C4C9CA" transform="translate(0,0)"/>
<path d="" fill="#EFF7F8" transform="translate(0,0)"/>
<path d="" fill="#99AAAC" transform="translate(0,0)"/>
<path d="" fill="#93A5A7" transform="translate(0,0)"/>
<path d="" fill="#93A5A8" transform="translate(0,0)"/>
<path d="" fill="#B6BABC" transform="translate(0,0)"/>
<path d="" fill="#ECF4F6" transform="translate(0,0)"/>
<path d="" fill="#E7EFF1" transform="translate(0,0)"/>
<path d="" fill="#E6FAFB" transform="translate(0,0)"/>
<path d="" fill="#DBEFEF" transform="translate(0,0)"/>
<path d="" fill="#A0ABB4" transform="translate(0,0)"/>
<path d="" fill="#B6BABC" transform="translate(0,0)"/>
<path d="" fill="#ECF4F6" transform="translate(0,0)"/>
<path d="" fill="#EAF2F3" transform="translate(0,0)"/>
<path d="" fill="#1F4246" transform="translate(0,0)"/>
<path d="" fill="#0B2D31" transform="translate(0,0)"/>
<path d="" fill="#DEE3E6" transform="translate(0,0)"/>
<path d="" fill="#C6CBCE" transform="translate(0,0)"/>
<path d="" fill="#B9BDBE" transform="translate(0,0)"/>
<path d="" fill="#B5B8BA" transform="translate(0,0)"/>
<path d="" fill="#B6BABC" transform="translate(0,0)"/>
<path d="" fill="#E8ECED" transform="translate(0,0)"/>
<path d="" fill="#E1E5E6" transform="translate(0,0)"/>
<path d="" fill="#ECF4F6" transform="translate(0,0)"/>
<path d="" fill="#EBF2F4" transform="translate(0,0)"/>
<path d="" fill="#EFF6F6" transform="translate(0,0)"/>
<path d="" fill="#E7F0F1" transform="translate(0,0)"/>
<path d="" fill="#B1B4B6" transform="translate(0,0)"/>
<path d="" fill="#AEB2B4" transform="translate(0,0)"/>
<path d="" fill="#B5B9BB" transform="translate(0,0)"/>
<path d="" fill="#EDF5F7" transform="translate(0,0)"/>
<path d="" fill="#E7EEF0" transform="translate(0,0)"/>
<path d="" fill="#E7EFF1" transform="translate(0,0)"/>
<path d="" fill="#E7F0F1" transform="translate(0,0)"/>
<path d="" fill="#E7F0F1" transform="translate(0,0)"/>
<path d="" fill="#E8F0F1" transform="translate(0,0)"/>
<path d="" fill="#17383C" transform="translate(0,0)"/>
<path d="" fill="#163639" transform="translate(0,0)"/>
<path d="" fill="#D8DDE0" transform="translate(0,0)"/>
<path d="" fill="#D8DDE0" transform="translate(0,0)"/>
<path d="" fill="#B5B8BA" transform="translate(0,0)"/>
<path d="" fill="#AEB2B4" transform="translate(0,0)"/>
<path d="" fill="#B5B9BB" transform="translate(0,0)"/>
<path d="" fill="#B5BABB" transform="translate(0,0)"/>
<path d="" fill="#DDE4E6" transform="translate(0,0)"/>
<path d="" fill="#EAF2F4" transform="translate(0,0)"/>
<path d="" fill="#E7EFF0" transform="translate(0,0)"/>
<path d="" fill="#EAF3F4" transform="translate(0,0)"/>
<path d="" fill="#DDE6E7" transform="translate(0,0)"/>
<path d="" fill="#D2E0E4" transform="translate(0,0)"/>
<path d="" fill="#DDE4E6" transform="translate(0,0)"/>
<path d="" fill="#DEE5E6" transform="translate(0,0)"/>
<path d="" fill="#E7F0F1" transform="translate(0,0)"/>
<path d="" fill="#E0E7E7" transform="translate(0,0)"/>
<path d="" fill="#D8DDE0" transform="translate(0,0)"/>
<path d="" fill="#B1B4B6" transform="translate(0,0)"/>
<path d="" fill="#B6BABB" transform="translate(0,0)"/>
<path d="" fill="#A9ACAE" transform="translate(0,0)"/>
<path d="" fill="#B8BAB9" transform="translate(0,0)"/>
<path d="" fill="#E7EEF0" transform="translate(0,0)"/>
<path d="" fill="#DDE5E6" transform="translate(0,0)"/>
<path d="" fill="#DEE6E7" transform="translate(0,0)"/>
<path d="" fill="#DEE6E7" transform="translate(0,0)"/>
<path d="" fill="#D8DEE1" transform="translate(0,0)"/>
<path d="" fill="#E6F8F9" transform="translate(0,0)"/>
<path d="" fill="#E8EEF0" transform="translate(0,0)"/>
<path d="" fill="#D9E0E2" transform="translate(0,0)"/>
<path d="" fill="#C6D0D1" transform="translate(0,0)"/>
<path d="" fill="#A9B8BB" transform="translate(0,0)"/>
<path d="" fill="#DDE4E6" transform="translate(0,0)"/>
<path d="" fill="#A9B8BB" transform="translate(0,0)"/>
<path d="" fill="#E7F9F9" transform="translate(0,0)"/>
<path d="" fill="#DCE5E6" transform="translate(0,0)"/>
<path d="" fill="#DDE5E7" transform="translate(0,0)"/>
<path d="" fill="#E6EFF0" transform="translate(0,0)"/>
<path d="" fill="#DDE5E6" transform="translate(0,0)"/>
</svg>
