<svg xmlns="http://www.w3.org/2000/svg" xmlns:xlink="http://www.w3.org/1999/xlink" width="19px" height="19px" viewBox="0 0 19 19" version="1.1">
<g id="surface1">
<path style="fill-rule: nonzero; fill: rgb(0, 0, 0); fill-opacity: 1; opacity: 1;" d="M 1.050781 8.519531 L 1.140625 8.519531 C 1.242188 8.519531 1.339844 8.519531 1.441406 8.519531 C 1.511719 8.519531 1.585938 8.519531 1.65625 8.519531 C 1.855469 8.519531 2.054688 8.519531 2.253906 8.519531 C 2.46875 8.519531 2.679688 8.519531 2.894531 8.519531 C 3.316406 8.519531 3.734375 8.519531 4.152344 8.519531 C 4.496094 8.519531 4.835938 8.519531 5.175781 8.519531 L 5.617188 8.519531 C 6.515625 8.519531 7.414062 8.519531 8.3125 8.519531 C 9.128906 8.519531 9.949219 8.519531 10.769531 8.519531 C 11.835938 8.519531 12.902344 8.519531 13.96875 8.519531 C 14.3125 8.519531 14.652344 8.519531 14.992188 8.519531 C 15.40625 8.519531 15.820312 8.519531 16.234375 8.519531 C 16.449219 8.519531 16.660156 8.519531 16.871094 8.519531 C 17.066406 8.519531 17.257812 8.519531 17.453125 8.519531 C 17.523438 8.519531 17.59375 8.519531 17.664062 8.519531 C 17.757812 8.519531 17.851562 8.519531 17.949219 8.519531 L 18.03125 8.519531 C 18.328125 8.523438 18.570312 8.625 18.785156 8.832031 C 18.996094 9.070312 19.027344 9.320312 19.015625 9.632812 C 18.980469 9.914062 18.851562 10.125 18.632812 10.308594 C 18.410156 10.4375 18.203125 10.480469 17.949219 10.480469 L 17.859375 10.480469 C 17.757812 10.480469 17.660156 10.480469 17.558594 10.480469 C 17.488281 10.480469 17.414062 10.480469 17.34375 10.480469 C 17.144531 10.480469 16.945312 10.480469 16.746094 10.480469 C 16.53125 10.480469 16.320312 10.480469 16.105469 10.480469 C 15.683594 10.480469 15.265625 10.480469 14.847656 10.480469 C 14.457031 10.480469 14.066406 10.480469 13.675781 10.480469 L 13.382812 10.480469 C 12.484375 10.480469 11.585938 10.480469 10.6875 10.480469 C 9.871094 10.480469 9.050781 10.480469 8.230469 10.480469 C 7.214844 10.480469 6.195312 10.480469 5.175781 10.480469 L 5.03125 10.480469 C 4.6875 10.480469 4.347656 10.480469 4.007812 10.480469 C 3.59375 10.480469 3.179688 10.480469 2.765625 10.480469 C 2.550781 10.480469 2.339844 10.480469 2.128906 10.480469 C 1.933594 10.480469 1.742188 10.480469 1.546875 10.480469 C 1.476562 10.480469 1.40625 10.480469 1.335938 10.480469 C 1.242188 10.480469 1.148438 10.480469 1.050781 10.480469 L 0.96875 10.480469 C 0.671875 10.476562 0.429688 10.375 0.214844 10.167969 C 0.00390625 9.929688 -0.0273438 9.679688 -0.015625 9.367188 C 0.0195312 9.085938 0.148438 8.875 0.367188 8.691406 C 0.589844 8.5625 0.796875 8.519531 1.050781 8.519531 M 6.082031 2.804688 C 6.136719 2.804688 6.1875 2.804688 6.238281 2.804688 C 6.382812 2.804688 6.523438 2.804688 6.667969 2.804688 C 6.820312 2.804688 6.976562 2.804688 7.128906 2.804688 C 7.429688 2.804688 7.730469 2.804688 8.03125 2.804688 C 8.277344 2.804688 8.523438 2.804688 8.765625 2.804688 L 8.871094 2.804688 C 8.945312 2.804688 9.015625 2.804688 9.085938 2.804688 C 9.75 2.804688 10.414062 2.804688 11.078125 2.804688 C 11.648438 2.804688 12.214844 2.804688 12.785156 2.804688 C 13.519531 2.804688 14.25 2.804688 14.984375 2.804688 L 15.089844 2.804688 C 15.332031 2.804688 15.578125 2.804688 15.820312 2.804688 C 16.121094 2.804688 16.417969 2.804688 16.714844 2.804688 C 16.867188 2.804688 17.019531 2.804688 17.171875 2.804688 C 17.3125 2.804688 17.449219 2.804688 17.589844 2.804688 C 17.664062 2.804688 17.738281 2.804688 17.8125 2.804688 C 18.171875 2.808594 18.507812 2.855469 18.777344 3.117188 C 19.007812 3.421875 19.027344 3.707031 19 4.082031 C 18.9375 4.34375 18.730469 4.523438 18.519531 4.675781 C 18.375 4.742188 18.265625 4.757812 18.109375 4.757812 L 17.972656 4.761719 L 17.660156 4.761719 C 17.515625 4.761719 17.371094 4.761719 17.222656 4.761719 C 17.066406 4.761719 16.90625 4.761719 16.75 4.761719 C 16.441406 4.761719 16.132812 4.761719 15.824219 4.761719 C 15.570312 4.761719 15.320312 4.761719 15.070312 4.761719 C 14.320312 4.761719 13.566406 4.765625 12.816406 4.765625 L 12.699219 4.765625 C 12.078125 4.765625 11.453125 4.765625 10.832031 4.765625 C 10.191406 4.765625 9.550781 4.765625 8.914062 4.765625 C 8.554688 4.765625 8.195312 4.765625 7.835938 4.769531 C 7.53125 4.769531 7.222656 4.769531 6.917969 4.769531 C 6.761719 4.769531 6.605469 4.769531 6.449219 4.769531 C 6.308594 4.769531 6.164062 4.769531 6.019531 4.769531 C 5.96875 4.769531 5.917969 4.769531 5.867188 4.769531 C 5.53125 4.769531 5.3125 4.746094 5.039062 4.539062 C 4.8125 4.308594 4.746094 4.136719 4.730469 3.8125 C 4.738281 3.515625 4.792969 3.296875 5.003906 3.085938 C 5.324219 2.820312 5.679688 2.804688 6.082031 2.804688 M 9.625 14.230469 L 9.734375 14.230469 C 9.859375 14.230469 9.984375 14.230469 10.109375 14.230469 C 10.195312 14.230469 10.285156 14.230469 10.375 14.230469 C 10.59375 14.230469 10.808594 14.230469 11.023438 14.230469 C 11.199219 14.230469 11.378906 14.230469 11.554688 14.230469 L 11.78125 14.230469 C 12.261719 14.230469 12.738281 14.230469 13.214844 14.230469 C 13.625 14.230469 14.035156 14.230469 14.445312 14.230469 C 14.996094 14.230469 15.546875 14.230469 16.101562 14.230469 C 16.277344 14.230469 16.453125 14.230469 16.628906 14.230469 C 16.863281 14.230469 17.101562 14.230469 17.335938 14.230469 C 17.425781 14.230469 17.511719 14.230469 17.597656 14.230469 C 17.714844 14.230469 17.835938 14.230469 17.953125 14.230469 L 18.058594 14.230469 C 18.339844 14.234375 18.570312 14.316406 18.769531 14.519531 C 19.007812 14.777344 19.019531 15 19.011719 15.339844 C 18.988281 15.609375 18.871094 15.785156 18.667969 15.957031 C 18.386719 16.15625 18.167969 16.183594 17.828125 16.183594 L 17.722656 16.183594 C 17.601562 16.183594 17.480469 16.1875 17.359375 16.1875 L 17.101562 16.1875 C 16.867188 16.1875 16.636719 16.1875 16.402344 16.1875 L 15.960938 16.1875 C 15.558594 16.1875 15.152344 16.1875 14.746094 16.1875 L 14.351562 16.1875 C 13.929688 16.1875 13.507812 16.1875 13.085938 16.191406 C 12.652344 16.191406 12.214844 16.191406 11.78125 16.191406 C 11.539062 16.191406 11.292969 16.191406 11.050781 16.191406 C 10.820312 16.191406 10.59375 16.191406 10.363281 16.191406 C 10.277344 16.191406 10.195312 16.191406 10.109375 16.195312 C 9.996094 16.195312 9.882812 16.195312 9.765625 16.191406 L 9.664062 16.195312 C 9.308594 16.191406 9.015625 16.109375 8.753906 15.855469 C 8.566406 15.628906 8.511719 15.378906 8.523438 15.089844 C 8.558594 14.808594 8.683594 14.578125 8.90625 14.398438 C 9.144531 14.261719 9.351562 14.226562 9.625 14.230469 " data-index="0"></path>
</g>
</svg>